<svg id="圖層_1" data-name="圖層 1" xmlns="http://www.w3.org/2000/svg" viewBox="0 0 607.36 607.73"><path d="M579.17,337l-.6,8.14,29.71-12.71.73-9.93L581.47,305.6l-.59,8.09,5.86,3.52-1.25,17.13ZM592,320.35l11.19,6.7-12,4.95Z" transform="translate(-1.65 -1.45)"/><path d="M582.44,356.46l22,4.64,1.52-7.22L577.9,348l-6.08,28.88,6.06,1.28Z" transform="translate(-1.65 -1.45)"/><path d="M574.39,389.26l21.3,7.27,2.39-7-27.16-9.27-9.54,27.93,5.86,2Z" transform="translate(-1.65 -1.45)"/><path d="M564.51,465.66l16.81-31-5.45-3L569.23,444l-19.79-10.73-3.52,6.49,19.79,10.72-6.64,12.26Z" transform="translate(-1.65 -1.45)"/><path d="M542.64,496.05l-9-6.71,14-18.74,9,6.7,4.4-5.92-23-17.13-4.4,5.92,9,6.7-14,18.75-9-6.71-4.4,5.92,23,17.14Z" transform="translate(-1.65 -1.45)"/><path d="M508,524.83l4.19,4.1,21.22-21.69-20.52-20.07-21.22,21.69,4.19,4.1,16.06-16.41,4.16,4.07L500,517l3.81,3.73,16.06-16.41,4.16,4.07Z" transform="translate(-1.65 -1.45)"/><path d="M464.25,549.66a8.4,8.4,0,0,0,1.43,5.84c2.47,3.43,6.05,5,11.33,1.13l20.48-14.78-16.8-23.27-21.27,15.36c-5.29,3.81-5.52,8.33-2.69,12.25A8.1,8.1,0,0,0,464.25,549.66Zm24.14-7.81-12.34,8.9c-1.63,1.17-3.09,2.23-4.82-.16s-.29-3.49,1.31-4.64l0,0,12.34-8.9Zm-24.18-4.35,13.83-10,3.56,4.92-13.83,10c-1.6,1.15-3.06,2.21-4.84-.25S462.62,538.65,464.21,537.5Z" transform="translate(-1.65 -1.45)"/><path d="M428.31,572.62c3,5.64,8.9,7.2,14.65,4.13l19.9-10.59-13.49-25.34-6.51,3.47,3.6,6.77L436,556.65l-7.69-4.59-7.68,4.08,8.68,5C426.59,564.34,426.11,568.49,428.31,572.62Zm25.13-8.46-11.58,6.17c-2,1-5,2.65-7-1.18s1-5.42,3-6.46l11.58-6.17Z" transform="translate(-1.65 -1.45)"/><path d="M388.09,568.38l-7.68,2.76,23.65,22,9.38-3.36,4.26-32-7.64,2.74-.84,6.79-16.17,5.79Zm20.4,5-1.6,12.93-9.4-9Z" transform="translate(-1.65 -1.45)"/><path d="M354.05,605.79l-4.21-21.15L373.27,602l9.81-2-5.59-28.15-7.24,1.44,4.19,21.11-23.37-17.3-9.86,2,5.6,28.15Z" transform="translate(-1.65 -1.45)"/><path d="M318.66,609.15l20.8-1.12-1.55-28.66-20.8,1.12c-7.41.4-13.67,5.34-13.15,15.08S311.25,609.55,318.66,609.15Zm1.57-22.62,10.64-.58.88,16.29-10.64.58c-5.57.3-9.4-.68-9.78-7.64S314.66,586.83,320.23,586.53Z" transform="translate(-1.65 -1.45)"/><path d="M299.08,591.13c.74-8.24-6.07-10.87-17.79-11.91-10.58-.94-17.94,0-18.62,7.61-.65,7.22,6.28,8.46,17.5,10.07,8.29,1.23,10,1.79,9.77,4s-2,2.67-9.19,2c-7.64-.68-10.72-1.73-10.44-4.88l-7.35-.65c-.63,7.07,5.67,10.34,16.45,11.3s17.29-.48,17.85-6.77-4.2-8.81-16.6-10.49c-9.23-1.27-10.83-1.83-10.62-4.2s2.6-2.89,10.32-2.2c9.31.82,11.64,2.43,11.37,5.45Z" transform="translate(-1.65 -1.45)"/><path d="M231.4,580.35l2.56-9.08-7.1-2-2.57,9.08-20.87,14.11,8.56,2.43,14.18-9.58,7.05,15.59,8.55,2.42Z" transform="translate(-1.65 -1.45)"/><path d="M192.8,556.08c-11.46-5.2-18.61-2.64-22.54,6S169.13,577.76,180.6,583s18.57,2.72,22.51-5.94S204.3,561.3,192.8,556.08Zm-2.56,5.64c7,3.17,8.59,6.87,6.15,12.25s-6.22,6.54-13.24,3.35-8.58-6.87-6.17-12.17S183.26,558.55,190.24,561.72Z" transform="translate(-1.65 -1.45)"/><path d="M135.73,540.59l-7.68,12.08,6.22,4L142,544.55c2.13-3.35,5.55-6.67,13.61-1.54s6.53,9.6,4.37,13l-7.68,12.07,6.23,4L166.17,560c5.37-8.44,3.38-15.39-7.28-22.17S141.08,532.19,135.73,540.59Z" transform="translate(-1.65 -1.45)"/><path d="M74.88,504.26l22-9.93-9.68,22.32,6.38,6.43,22.33-9.51-10,21.91,5.6,5.64,12.4-28.25-7.17-7.22-21.31,9.2,9.38-21.21-7.19-7.25L69.25,498.58Z" transform="translate(-1.65 -1.45)"/><path d="M71.6,450.5,67,443.75,51.6,472.14l5.59,8.25,32.06-3.86-4.55-6.72-6.78.88-9.65-14.21Zm.23,21L58.9,473.19l6.37-11.36Z" transform="translate(-1.65 -1.45)"/><path d="M26.87,426.68l19.46-9.28-11,27,4.3,9,25.91-12.35-3.17-6.66L42.9,443.65l11-26.91-4.32-9.07L23.69,420Z" transform="translate(-1.65 -1.45)"/><path d="M10.62,379.84,21.13,413.5,27,411.65l-4.16-13.3,21.49-6.71-2.2-7-21.49,6.7L16.53,378Z" transform="translate(-1.65 -1.45)"/><path d="M32.55,369.82l5.37-1.17-1.5-6.85L31.05,363Z" transform="translate(-1.65 -1.45)"/><path d="M30.67,315.36l-.6-8.14L2.53,324.12l.73,9.94L33,346.72l-.6-8.1L26.06,336,24.8,318.87ZM20.38,333.67l-12-5L19.52,322Z" transform="translate(-1.65 -1.45)"/><path d="M24.57,296,2.11,294.59,1.65,302l28.65,1.77,1.82-29.47-6.18-.38Z" transform="translate(-1.65 -1.45)"/><path d="M27.68,262.64,5.54,258.59l-1.33,7.26L32.44,271l5.31-29-6.09-1.11Z" transform="translate(-1.65 -1.45)"/><path d="M26.34,185.21,14.2,218.31,20,220.44l4.8-13.08,21.13,7.75,2.54-6.93-21.13-7.75,4.8-13.09Z" transform="translate(-1.65 -1.45)"/><path d="M43,152.84l9.89,5.32L41.85,178.74,32,173.43l-3.5,6.5,25.28,13.58,3.5-6.5-9.9-5.32L58.4,161.11l9.9,5.31,3.49-6.5L46.51,146.34Z" transform="translate(-1.65 -1.45)"/><path d="M73,119.26l-4.74-3.45L50.41,140.35l23.21,16.88L91.47,132.7l-4.74-3.45L73.22,147.82l-4.71-3.43L82,125.82l-4.31-3.13L64.2,141.26l-4.7-3.43Z" transform="translate(-1.65 -1.45)"/><path d="M90.26,111.54c6.65,6.85,14.19,6.85,23.25-2,8.21-8,9.27-15.12,4-21.6l-5.39,5.22c2.76,3.84,1.46,7.68-2.92,11.94-5.36,5.2-9.54,5.48-13.65,1.25s-3.68-8.32,1.71-13.55c4.41-4.28,8.22-5.47,11.95-2.64L114.59,85c-6.3-5.43-13.44-4.55-21.65,3.42C83.88,97.21,83.63,104.72,90.26,111.54Z" transform="translate(-1.65 -1.45)"/><path d="M142.46,84.88c10.15-7.44,11.42-14.93,5.8-22.6s-13.1-8.65-23.25-1.21-11.47,14.87-5.85,22.54S132.27,92.35,142.46,84.88Zm-3.66-5c-6.18,4.53-10.2,4.12-13.69-.64s-2.66-8.63,3.56-13.18,10.2-4.12,13.64.57S145,75.36,138.8,79.89Z" transform="translate(-1.65 -1.45)"/><path d="M174.8,64.26c11.09-6,13.39-13.2,8.89-21.58s-11.77-10.39-22.86-4.43-13.42,13.13-8.92,21.51S163.68,70.23,174.8,64.26Zm-2.92-5.46c-6.76,3.63-10.68,2.66-13.47-2.54s-1.44-8.91,5.35-12.55,10.67-2.67,13.43,2.46S178.63,55.17,171.88,58.8Z" transform="translate(-1.65 -1.45)"/><path d="M198.17,45.67l-8-21-6.9,2.62,10.18,26.83,27.6-10.48-2.19-5.78Z" transform="translate(-1.65 -1.45)"/><path d="M232.94,29.51c1.55,8.14,8.81,8.8,20.37,6.59,10.43-2,17.27-4.88,15.83-12.41-1.36-7.13-8.36-6.42-19.59-4.9-8.31,1.08-10.08,1-10.49-1.17s1.16-3.1,8.29-4.46c7.53-1.44,10.78-1.27,11.37,1.83L266,13.61c-1.33-7-8.28-8.4-18.91-6.37s-16.5,5.19-15.32,11.4,6.45,7.32,18.84,5.54c9.23-1.3,10.91-1.2,11.36,1.14s-1.71,3.49-9.32,4.95c-9.19,1.75-11.86.84-12.43-2.14Z" transform="translate(-1.65 -1.45)"/><path d="M306.91,1.55,271.69,3.32,272,9.5l13.93-.7,1.12,22.48,7.38-.37L293.3,8.43l13.92-.7Z" transform="translate(-1.65 -1.45)"/><path d="M347.89,18.9l1.27-14.25L341.81,4l-1.27,14.26c-.35,4-1.86,8.47-11.38,7.63s-10.21-5.52-9.85-9.52L320.57,2.1l-7.35-.65L312,15.7c-.88,10,4.09,15.23,16.66,16.34S347,28.82,347.89,18.9Z" transform="translate(-1.65 -1.45)"/><path d="M385.42,18.65l1.37-6L357.2,5.9l-6.34,28,7.2,1.64,2-8.76,20,4.53,1.38-6.08-20-4.53L363,13.57Z" transform="translate(-1.65 -1.45)"/><path d="M418.9,30.14,421,24.31,392.42,14.08l-9.67,27,6.94,2.49,3-8.45L412,42.05l2.1-5.87-19.3-6.91,2.46-6.87Z" transform="translate(-1.65 -1.45)"/><path d="M444.28,57.21l-4.73,8.15,6.38,3.71,4.74-8.16,23.71-8.51-7.69-4.46-16.11,5.77-3-16.85-7.7-4.47Z" transform="translate(-1.65 -1.45)"/><path d="M476.09,90.34c9.84,7.85,17.4,7.11,23.33-.33s4.91-14.91-4.94-22.76-17.36-7.16-23.28.28S466.21,82.48,476.09,90.34Zm3.85-4.84c-6-4.78-6.65-8.76-3-13.37s7.62-4.84,13.65,0,6.65,8.76,3,13.31S485.94,90.28,479.94,85.5Z" transform="translate(-1.65 -1.45)"/><path d="M527.12,118.59l10.37-9.86-5.08-5.35L522,113.24c-2.88,2.74-7,5.13-13.59-1.79s-4-10.89-1.1-13.66l10.37-9.86-5.08-5.35-10.37,9.86c-7.25,6.89-7,14.12,1.7,23.27S519.9,125.45,527.12,118.59Z" transform="translate(-1.65 -1.45)"/><path d="M566.39,149.47l-18.11,11.71L555.75,133l-5.43-8.4-24.1,15.59,4,6.19,18.08-11.68-7.46,28.11,5.46,8.43,24.1-15.58Z" transform="translate(-1.65 -1.45)"/><path d="M581.26,191.55l5.3-2.51-13-27.43-26,12.25,13,27.44,5.31-2.51L556.1,178l5.27-2.48,9.8,20.76L576,194l-9.8-20.76,5.26-2.48Z" transform="translate(-1.65 -1.45)"/><path d="M593.21,226.32l5.57-1.83-9.47-28.83-27.27,9,9.48,28.83,5.57-1.83-7.17-21.82,5.53-1.81,7.17,21.81,5.06-1.67-7.17-21.81L586,204.5Z" transform="translate(-1.65 -1.45)"/><path d="M604.58,251.38l-3.91-20.46-28.19,5.37,3.91,20.46c1.39,7.29,7.12,12.84,16.7,11S606,258.67,604.58,251.38ZM582,252.86l-2-10.48,16-3,2,10.47c1,5.47.59,9.4-6.26,10.71S583,258.33,582,252.86Z" transform="translate(-1.65 -1.45)"/><path d="M584.35,273l-5.47.55.71,7,5.46-.55Z" transform="translate(-1.65 -1.45)"/></svg>