<svg width="648" height="119" viewBox="0 0 648 119" fill="none" xmlns="http://www.w3.org/2000/svg">
<path d="M116.799 57.177C122.001 51.057 125.214 44.019 125.214 37.134C125.214 20.916 117.717 9.89999 93.39 9.89999H0.0600002V117H97.98C122.307 117 132.864 102.924 132.864 85.329C132.864 73.701 126.132 63.909 116.799 57.177ZM39.84 35.91H76.56C80.538 35.91 85.434 35.91 85.434 41.724C85.434 47.538 80.538 47.538 76.56 47.538H39.84V35.91ZM84.21 87.93H39.84V76.608H84.21C88.188 76.608 93.084 76.608 93.084 82.269C93.084 87.93 88.188 87.93 84.21 87.93ZM190.036 89.46C179.938 89.46 169.687 87.012 166.627 77.22H253.684C253.684 37.134 229.357 23.67 191.566 23.67C154.081 23.67 129.142 37.134 129.142 71.1C129.142 105.066 154.081 118.53 190.036 118.53C227.827 118.53 247.564 106.902 252.154 82.575H216.199C208.702 88.542 203.347 89.46 190.036 89.46ZM191.413 49.68C201.205 49.68 210.385 50.598 214.516 58.86H168.31C172.441 50.598 181.621 49.68 191.413 49.68ZM311.128 23.67C294.145 23.67 274.255 27.036 255.895 33.003L267.829 59.013C284.659 55.341 298.123 54.27 309.904 54.27C322.144 54.27 333.772 54.729 333.772 65.745C325.357 62.685 315.565 61.002 302.713 61.002C275.938 61.002 248.398 67.275 248.398 91.143C248.398 111.033 266.758 118.53 287.719 118.53C303.631 118.53 319.543 116.235 333.772 105.831V117H370.492V71.559C370.186 36.522 348.766 23.67 311.128 23.67ZM333.772 87.012C324.592 90.99 311.128 94.05 298.735 94.05C289.402 94.05 285.118 93.285 285.118 88.236C285.118 82.422 292.462 80.892 309.445 80.892C320.002 80.892 327.958 81.657 333.772 83.187V87.012ZM460.97 55.8V25.2H423.485V0.719992L386.765 9.89999V25.2H368.252V55.8H386.765V89.919C386.765 109.809 400.841 118.53 429.299 118.53C441.386 118.53 452.249 117.765 460.97 116.235V86.4C450.413 87.93 445.823 87.93 437.561 87.93C426.851 87.93 423.485 83.493 423.485 74.772V55.8H460.97Z" fill="white"/>
<path d="M555.886 9.89999H516.106V117H555.886V9.89999ZM647.809 55.8V25.2H610.324V0.719992L573.604 9.89999V25.2H555.091V55.8H573.604V89.919C573.604 109.809 587.68 118.53 616.138 118.53C628.225 118.53 639.088 117.765 647.809 116.235V86.4C637.252 87.93 632.662 87.93 624.4 87.93C613.69 87.93 610.324 83.493 610.324 74.772V55.8H647.809Z" fill="#E88239"/>
</svg>
