<svg width="248" height="253" viewBox="0 0 248 253" fill="none" xmlns="http://www.w3.org/2000/svg">
<path d="M224.338 145.548C222.073 145.145 220.364 144.112 219.212 142.45C218.059 140.798 217.613 138.728 217.872 136.242C218.157 133.522 219.293 131.476 221.283 130.103C223.281 128.741 225.877 128.227 229.073 128.561L230.37 128.696C232.409 128.909 234.169 129.456 235.648 130.337C237.127 131.218 238.209 132.367 238.896 133.784C239.591 135.212 239.846 136.81 239.662 138.577C239.406 141.025 238.544 142.928 237.077 144.287C235.609 145.646 233.679 146.318 231.284 146.303L231.741 141.933C233.122 141.969 234.152 141.689 234.833 141.092C235.523 140.506 235.938 139.543 236.078 138.203C236.23 136.746 235.82 135.598 234.847 134.76C233.883 133.933 232.304 133.395 230.111 133.146L228.508 132.979C226.216 132.739 224.505 132.909 223.374 133.488C222.242 134.077 221.598 135.119 221.442 136.615C221.301 137.965 221.502 139.002 222.045 139.727C222.596 140.462 223.513 140.945 224.795 141.177L224.338 145.548Z" fill="white"/>
<path d="M218.136 154.776L215.356 163.683L211.986 162.632L216.075 149.529L236.435 155.883L235.126 160.078L218.136 154.776Z" fill="white"/>
<path d="M207.344 172.013L209.293 168.074L228.407 177.537L226.458 181.475L207.344 172.013Z" fill="white"/>
<path d="M200.618 194.845C198.865 193.354 197.91 191.601 197.753 189.585C197.591 187.577 198.248 185.564 199.726 183.548C201.343 181.343 203.356 180.149 205.766 179.966C208.179 179.797 210.681 180.662 213.272 182.562L214.323 183.333C215.977 184.545 217.221 185.904 218.054 187.411C218.887 188.918 219.243 190.456 219.121 192.026C219.002 193.609 218.417 195.117 217.366 196.551C215.911 198.536 214.207 199.745 212.255 200.178C210.303 200.612 208.296 200.219 206.236 198.999L208.834 195.455C210.008 196.182 211.039 196.46 211.928 196.288C212.819 196.13 213.663 195.507 214.46 194.421C215.326 193.239 215.55 192.041 215.132 190.827C214.717 189.626 213.625 188.366 211.856 187.045L210.557 186.093C208.698 184.73 207.134 184.014 205.866 183.944C204.592 183.882 203.51 184.457 202.621 185.67C201.818 186.765 201.469 187.762 201.572 188.661C201.678 189.574 202.226 190.454 203.216 191.3L200.618 194.845Z" fill="white"/>
<path d="M192.376 204.908L192.435 201.55L188.367 197.013L191.639 194.079L205.877 209.96L202.605 212.893L196.151 205.695L196.481 208.96L197.118 217.812L193.094 221.42L192.406 209.308L178.693 205.686L182.587 202.195L192.376 204.908Z" fill="white"/>
<path d="M150.442 219.845L154.496 218.148L158.025 226.58L165.93 223.271L162.4 214.84L166.454 213.143L174.689 232.817L170.635 234.514L167.298 226.541L159.394 229.85L162.731 237.823L158.677 239.519L150.442 219.845Z" fill="white"/>
<path d="M134.169 232.619L142.457 231.039L141.386 225.427L131.659 227.282L130.998 223.814L145.042 221.136L149.038 242.086L135.023 244.759L134.356 241.263L144.054 239.413L143.102 234.42L134.814 236.001L134.169 232.619Z" fill="white"/>
<path d="M119.011 231.746L122.512 231.787L122.602 223.98L126.996 224.031L126.749 245.357L118.825 245.266C116.306 245.236 114.369 244.652 113.015 243.514C111.661 242.375 110.996 240.78 111.019 238.729C111.036 237.274 111.368 236.062 112.014 235.093C112.65 234.134 113.611 233.373 114.897 232.812L110.384 224.043L110.386 223.838L115.103 223.893L119.011 231.746ZM122.47 235.346L118.926 235.305C117.822 235.292 116.965 235.561 116.353 236.11C115.741 236.67 115.429 237.442 115.418 238.429C115.406 239.435 115.685 240.229 116.254 240.812C116.814 241.394 117.685 241.693 118.866 241.706L122.396 241.747L122.47 235.346Z" fill="white"/>
<path d="M91.4904 229.348L99.7401 231.118L100.939 225.532L91.2568 223.455L91.9975 220.003L105.976 223.003L101.501 243.856L87.5512 240.862L88.2981 237.382L97.9514 239.454L99.0178 234.484L90.7681 232.713L91.4904 229.348Z" fill="white"/>
<path d="M55.2185 221.669L60.8678 224.951L69.7924 209.586L73.5924 211.793L64.6678 227.158L70.2411 230.395L68.4533 233.473L53.4306 224.747L55.2185 221.669Z" fill="white"/>
<path d="M41.1605 199.577C42.5734 198.024 44.0866 196.912 45.7002 196.241C47.3138 195.571 48.9226 195.384 50.5267 195.681C52.1235 195.972 53.5829 196.719 54.9049 197.922C56.2124 199.111 57.0931 200.487 57.5472 202.048C58.0012 203.61 57.981 205.228 57.4864 206.904C56.9853 208.587 56.0483 210.19 54.6755 211.714L53.9657 212.494C52.5529 214.047 51.0327 215.159 49.4053 215.831C47.7642 216.503 46.1484 216.69 44.5582 216.392C42.9541 216.094 41.4947 215.347 40.18 214.151C38.8653 212.955 37.9878 211.576 37.5475 210.014C37.0935 208.452 37.1272 206.826 37.6487 205.135C38.1564 203.445 39.1135 201.827 40.5198 200.282L41.1605 199.577ZM43.8039 203.289C42.299 204.943 41.4518 206.47 41.2621 207.868C41.0724 209.267 41.5266 210.465 42.6246 211.464C43.7154 212.456 44.9447 212.796 46.3125 212.482C47.6737 212.176 49.1038 211.206 50.6027 209.573L51.3026 208.804C52.7681 207.193 53.6088 205.674 53.8247 204.246C54.0407 202.819 53.5924 201.599 52.48 200.587C51.3892 199.595 50.1635 199.259 48.803 199.579C47.4358 199.906 46.0028 200.886 44.5038 202.52L43.8039 203.289Z" fill="white"/>
<path d="M27.1022 97.3962L7.27749 89.5306L10.0326 82.5865C10.987 80.181 12.1739 78.5402 13.5931 77.6639C15.0033 76.7841 16.598 76.6971 18.3772 77.403C19.3484 77.7884 20.1072 78.3783 20.6534 79.1729C21.1906 79.9639 21.4552 80.8726 21.4472 81.899C22.1047 80.9832 22.9345 80.3879 23.9366 80.1131C24.9423 79.8292 26.0033 79.9087 27.1198 80.3517C29.0261 81.108 30.2281 82.2888 30.7258 83.8941C31.2235 85.4994 31.0349 87.4313 30.1599 89.6896L27.1022 97.3962ZM20.0904 89.8865L25.4415 92.0095L26.8298 88.5103C27.2116 87.5481 27.2818 86.7092 27.0404 85.9935C26.7936 85.2652 26.2662 84.7408 25.4583 84.4203C23.6429 83.7 22.3488 84.2739 21.576 86.1421L20.0904 89.8865ZM17.2039 88.7412L18.4031 85.7185C19.1844 83.6435 18.7717 82.2873 17.165 81.6499C16.2663 81.2933 15.5174 81.3008 14.9182 81.6725C14.3135 82.0314 13.7879 82.7737 13.3413 83.8992L12.2068 86.7586L17.2039 88.7412Z" fill="white"/>
<path d="M34.8092 62.261L30.2017 69.3294L34.9876 72.449L40.395 64.1535L43.3525 66.0812L35.5454 78.0583L17.678 66.4117L25.469 54.4591L28.451 56.4029L23.0597 64.674L27.3179 67.4496L31.9254 60.3812L34.8092 62.261Z" fill="white"/>
<path d="M50.6206 51.9462L45.212 57.434L47.3137 61.562L44.0336 64.8902L34.4162 44.2642L37.2747 41.3638L58.0691 50.6491L54.789 53.9772L50.6206 51.9462ZM43.5097 54.0903L47.2525 50.2927L39.6848 46.598L43.5097 54.0903Z" fill="white"/>
<path d="M64.2823 25.0816L58.8355 28.6892L68.6472 43.5031L64.9834 45.9298L55.1717 31.1159L49.7982 34.6749L47.8326 31.7073L62.3168 22.1139L64.2823 25.0816Z" fill="white"/>
<path d="M98.8853 12.4084L92.5796 14.1172L97.2271 31.2672L92.9855 32.4166L88.338 15.2666L82.1171 16.9525L81.186 13.5168L97.9543 8.97271L98.8853 12.4084Z" fill="white"/>
<path d="M124.026 28.0941L119.638 28.3313L119.144 19.204L110.588 19.6667L111.081 28.794L106.693 29.0313L105.541 7.73431L109.93 7.49703L110.396 16.127L118.953 15.6643L118.486 7.03433L122.875 6.79705L124.026 28.0941Z" fill="white"/>
<path d="M144.003 21.4526L135.665 20.1582L134.789 25.8034L144.574 27.3226L144.032 30.8111L129.905 28.6177L133.177 7.54209L147.275 9.73091L146.729 13.2483L136.973 11.7337L136.193 16.7565L144.531 18.0509L144.003 21.4526Z" fill="white"/>
<path d="M172.838 18.8096L170.223 35.0102L182.426 24.0525L187.489 26.8215L177.257 45.5346L173.388 43.4192L176.185 38.3039L181.399 29.6852L168.723 40.868L166.075 39.4202L168.655 22.7333L164.22 31.7608L161.423 36.8761L157.567 34.7677L167.8 16.0546L172.838 18.8096Z" fill="white"/>
<path d="M206.474 43.0165L197.021 53.4078C195.45 55.1343 193.667 56.0067 191.67 56.025C189.68 56.05 187.749 55.2114 185.878 53.5094C184.036 51.8336 183.017 50.0153 182.821 48.0544C182.624 46.0934 183.291 44.2507 184.82 42.5262L194.382 32.0157L197.632 34.9729L188.159 45.3859C187.22 46.4189 186.779 47.3972 186.836 48.3208C186.907 49.2438 187.38 50.1029 188.254 50.898C190.082 52.5606 191.884 52.4443 193.661 50.5491L203.213 40.0494L206.474 43.0165Z" fill="white"/>
<path d="M206.908 68.702C207.581 68.2162 207.924 67.6071 207.937 66.8748C207.959 66.1368 207.721 65.0073 207.226 63.4862C206.738 61.9595 206.428 60.6958 206.296 59.6952C205.939 56.9656 206.66 54.952 208.457 53.6545C209.392 52.9801 210.412 52.6412 211.517 52.638C212.637 52.6369 213.757 52.9787 214.877 53.6634C216.003 54.3559 217.009 55.3159 217.895 56.5432C218.787 57.7784 219.356 59.0419 219.602 60.3338C219.856 61.6199 219.766 62.8225 219.334 63.9418C218.907 65.0689 218.175 66.0069 217.137 66.7557L214.565 63.1925C215.357 62.6209 215.791 61.9285 215.866 61.1153C215.949 60.2964 215.665 59.4356 215.014 58.5329C214.385 57.6619 213.71 57.1192 212.989 56.9048C212.277 56.6847 211.619 56.7919 211.017 57.2263C210.455 57.6321 210.187 58.2533 210.213 59.0898C210.244 59.9343 210.491 61.0269 210.953 62.3676C211.806 64.8347 212.116 66.8573 211.882 68.4354C211.648 70.0134 210.858 71.2882 209.512 72.2599C208.016 73.3402 206.431 73.6228 204.759 73.1078C203.094 72.5871 201.57 71.3686 200.187 69.4524C199.227 68.1222 198.594 66.7364 198.288 65.295C197.99 63.8479 198.056 62.5296 198.486 61.34C198.922 60.1583 199.698 59.1645 200.814 58.3585L203.395 61.9336C201.487 63.3111 201.356 65.1401 203.002 67.4205C203.613 68.2677 204.261 68.806 204.944 69.0353C205.636 69.2589 206.29 69.1478 206.908 68.702Z" fill="white"/>
<path d="M209.571 84.8329L207.606 80.9018L226.685 71.3683L228.649 75.2994L209.571 84.8329Z" fill="white"/>
<path d="M223.748 103.916C221.502 104.415 219.528 104.12 217.825 103.03C216.125 101.949 214.916 100.211 214.198 97.8163C213.413 95.197 213.675 92.8708 214.982 90.8377C216.301 88.8111 218.5 87.3367 221.578 86.4144L222.826 86.0402C224.791 85.4515 226.625 85.279 228.329 85.5227C230.034 85.7665 231.475 86.41 232.654 87.4533C233.846 88.5031 234.697 89.8793 235.207 91.5819C235.913 93.9392 235.851 96.0274 235.02 97.8465C234.189 99.6656 232.665 101.029 230.45 101.938L229.189 97.7283C230.477 97.2301 231.32 96.5747 231.719 95.7619C232.13 94.9558 232.142 93.9072 231.755 92.6163C231.334 91.2131 230.514 90.3121 229.293 89.9132C228.085 89.5209 226.421 89.6322 224.301 90.247L222.758 90.7096C220.55 91.3712 219.036 92.1868 218.215 93.1565C217.397 94.1356 217.204 95.3455 217.636 96.7861C218.026 98.0864 218.611 98.9663 219.39 99.4258C220.183 99.8919 221.215 99.9852 222.487 99.706L223.748 103.916Z" fill="white"/>
</svg>
