<svg width="282" height="282" viewBox="0 0 282 282" fill="none" xmlns="http://www.w3.org/2000/svg">
<path d="M258.521 160.035C256.299 159.564 254.64 158.572 253.545 157.058C252.459 155.554 252.023 153.646 252.238 151.331C252.471 148.823 253.557 146.893 255.497 145.543C257.435 144.203 259.912 143.673 262.926 143.953L264.968 144.142C266.942 144.325 268.646 144.837 270.078 145.676C271.51 146.524 272.564 147.633 273.241 149C273.928 150.368 274.193 151.903 274.035 153.605C273.826 155.86 273.026 157.61 271.635 158.854C270.255 160.099 268.44 160.73 266.193 160.747L266.454 157.932C268.169 157.846 269.443 157.43 270.277 156.684C271.111 155.947 271.595 154.849 271.731 153.391C271.897 151.601 271.366 150.135 270.138 148.991C268.91 147.857 267.075 147.177 264.634 146.95L262.578 146.76C260.273 146.546 258.395 146.857 256.945 147.693C255.494 148.529 254.688 149.813 254.528 151.544C254.383 153.1 254.623 154.323 255.246 155.215C255.878 156.117 257.057 156.785 258.782 157.22L258.521 160.035Z" fill="#E47B31"/>
<path d="M251.826 169.229L249.109 178.964L246.894 178.345L250.371 165.887L270.914 171.622L270.154 174.345L251.826 169.229Z" fill="#E47B31"/>
<path d="M243.249 186.82L244.364 184.238L263.944 192.693L262.829 195.275L243.249 186.82Z" fill="#E47B31"/>
<path d="M237.479 210.748C235.706 209.328 234.672 207.695 234.375 205.85C234.081 204.019 234.551 202.118 235.784 200.148C237.121 198.013 238.96 196.778 241.299 196.446C243.634 196.121 246.084 196.762 248.65 198.369L250.388 199.457C252.069 200.509 253.36 201.732 254.261 203.126C255.158 204.528 255.601 205.992 255.59 207.518C255.588 209.049 255.134 210.539 254.227 211.987C253.025 213.907 251.523 215.11 249.722 215.596C247.928 216.086 246.024 215.833 244.01 214.837L245.51 212.44C247.08 213.135 248.405 213.337 249.486 213.046C250.562 212.763 251.488 212.001 252.265 210.759C253.219 209.236 253.405 207.688 252.823 206.114C252.236 204.548 250.904 203.115 248.826 201.814L247.075 200.718C245.114 199.49 243.297 198.923 241.625 199.017C239.953 199.111 238.656 199.895 237.734 201.369C236.905 202.693 236.568 203.893 236.723 204.97C236.882 206.06 237.634 207.188 238.979 208.352L237.479 210.748Z" fill="#E47B31"/>
<path d="M230.924 223.331L230.715 219.577L225.437 214.669L227.352 212.609L242.971 227.133L241.056 229.192L233.333 222.011L234.603 236.133L232.288 238.622L231.106 226.061L216.22 224.581L218.515 222.114L230.924 223.331Z" fill="#E47B31"/>
<path d="M189.641 242.26L192.091 240.849L197.011 249.392L206.328 244.026L201.408 235.483L203.845 234.079L214.49 252.561L212.053 253.965L207.476 246.019L198.159 251.385L202.735 259.331L200.285 260.742L189.641 242.26Z" fill="#E47B31"/>
<path d="M175.424 258.097L184.149 255.045L181.654 247.91L171.518 251.455L170.759 249.284L183.549 244.811L190.59 264.944L177.938 269.368L177.174 267.183L187.171 263.687L184.908 257.216L176.183 260.267L175.424 258.097Z" fill="#E47B31"/>
<path d="M159.193 260.276L164.137 259.47L162.748 250.954L165.539 250.499L168.972 271.549L162.004 272.686C159.633 273.072 157.723 272.83 156.275 271.958C154.817 271.087 153.92 269.621 153.583 267.558C153.369 266.247 153.54 265.047 154.094 263.957C154.639 262.869 155.503 261.981 156.687 261.293L150.286 253.165L150.257 252.992L153.235 252.506L159.193 260.276ZM164.508 261.739L160.243 262.435C158.864 262.66 157.829 263.195 157.135 264.04C156.432 264.887 156.178 265.908 156.373 267.103C156.586 268.404 157.139 269.338 158.033 269.905C158.917 270.473 160.092 270.642 161.559 270.413L165.809 269.72L164.508 261.739Z" fill="#E47B31"/>
<path d="M132.665 262.744L141.907 262.887L142.023 255.329L131.287 255.163L131.323 252.864L144.871 253.073L144.542 274.399L131.14 274.192L131.176 271.877L141.765 272.041L141.871 265.186L132.629 265.044L132.665 262.744Z" fill="#E47B31"/>
<path d="M94.7129 263.903L101.272 265.895L106.799 247.703L109.476 248.516L103.949 266.709L110.495 268.697L109.822 270.912L94.0402 266.117L94.7129 263.903Z" fill="#E47B31"/>
<path d="M76.3286 244.858C77.2972 243.006 78.4551 241.551 79.8023 240.492C81.145 239.442 82.5776 238.853 84.1001 238.723C85.6225 238.594 87.1452 238.927 88.6682 239.724C90.1566 240.503 91.2862 241.556 92.0569 242.885C92.823 244.223 93.1733 245.734 93.1075 247.419C93.0286 249.108 92.5316 250.848 91.6165 252.64L90.9036 254.003C89.9531 255.82 88.7977 257.26 87.4373 258.323C86.0769 259.385 84.6288 259.983 83.0932 260.117C81.5444 260.255 80.0258 259.934 78.5374 259.156C77.0231 258.364 75.8828 257.299 75.1167 255.961C74.3373 254.628 74.0005 253.102 74.1061 251.383C74.2073 249.672 74.7399 247.895 75.704 246.052L76.3286 244.858ZM78.1696 247.375C76.9973 249.616 76.5488 251.569 76.8242 253.234C77.095 254.908 78.0395 256.168 79.6577 257.014C81.2326 257.838 82.7889 257.886 84.3267 257.158C85.8512 256.435 87.1832 255.016 88.3226 252.9L89.0491 251.512C90.1851 249.34 90.6248 247.393 90.3679 245.672C90.0979 243.954 89.1625 242.677 87.5616 241.84C85.9521 240.998 84.4004 240.93 82.9068 241.637C81.4086 242.352 80.0739 243.797 78.9028 245.973L78.1696 247.375Z" fill="#E47B31"/>
<path d="M28.8971 145.159L7.57295 144.747L7.70751 137.776C7.75218 135.462 8.26415 133.733 9.24343 132.59C10.2229 131.437 11.65 130.878 13.5246 130.914C14.5205 130.934 15.3987 131.234 16.1591 131.815C16.9097 132.396 17.4856 133.179 17.8865 134.163C18.231 133.017 18.8636 132.121 19.7845 131.475C20.6958 130.818 21.7763 130.502 23.0261 130.526C24.9398 130.563 26.4314 131.212 27.501 132.473C28.5706 133.735 29.0836 135.498 29.0399 137.763L28.8971 145.159ZM18.9777 142.155L26.652 142.303L26.7416 137.66C26.7669 136.352 26.4499 135.315 25.7907 134.55C25.1219 133.775 24.192 133.377 23.0008 133.354C20.4329 133.304 19.122 134.675 19.0681 137.468L18.9777 142.155ZM16.7222 142.111L16.8042 137.864C16.8279 136.633 16.5393 135.646 15.9383 134.902C15.3375 134.148 14.5099 133.761 13.4554 133.741C12.2837 133.718 11.4277 134.043 10.8873 134.717C10.3371 135.39 10.0485 136.424 10.0215 137.821L9.94125 141.98L16.7222 142.111Z" fill="#E47B31"/>
<path d="M22.7604 110.774L20.9247 119.833L28.3327 121.334L30.4652 110.811L32.7192 111.268L30.0282 124.547L9.12489 120.312L11.7869 107.175L14.0552 107.635L11.9518 118.015L18.6707 119.376L20.5065 110.317L22.7604 110.774Z" fill="#E47B31"/>
<path d="M33.2598 93.6959L29.9334 101.989L34.3526 105.924L33.2729 108.616L16.5097 93.117L17.4258 90.8329L40.2584 91.2L39.1841 93.8783L33.2598 93.6959ZM28.1016 100.339L30.8009 93.6092L20.1899 93.2673L28.1016 100.339Z" fill="#E47B31"/>
<path d="M34.8101 63.7994L31.1299 69.5834L47.1717 79.7902L45.6698 82.1508L29.628 71.9439L25.9557 77.7155L24.003 76.473L32.8574 62.557L34.8101 63.7994Z" fill="#E47B31"/>
<path d="M60.0739 37.6304L54.9529 42.1881L67.5935 56.3914L65.5035 58.2515L52.8629 44.0482L47.7527 48.5961L46.2141 46.8672L58.5352 35.9015L60.0739 37.6304Z" fill="#E47B31"/>
<path d="M89.7707 41.0572L87.3526 42.5219L82.245 34.0898L73.0486 39.6603L78.1562 48.0925L75.7506 49.5496L64.7006 31.3072L67.1062 29.85L71.8571 37.6933L81.0535 32.1227L76.3026 24.2795L78.7207 22.8148L89.7707 41.0572Z" fill="#E47B31"/>
<path d="M103.363 24.9216L94.7091 28.1688L97.3645 35.2456L107.417 31.4735L108.225 33.6267L95.5392 38.3869L88.0465 18.4182L100.595 13.7095L101.409 15.8764L91.4928 19.5971L93.9011 26.0156L102.555 22.7684L103.363 24.9216Z" fill="#E47B31"/>
<path d="M127.368 8.15328L135.139 25.2142L141.299 7.50773L144.942 7.33888L145.929 28.6441L143.12 28.7743L142.736 20.4776L142.584 11.5101L136.389 29.0863L134.238 29.1859L126.461 12.3013L127.152 21.1998L127.536 29.4965L124.727 29.6267L123.739 8.32145L127.368 8.15328Z" fill="#E47B31"/>
<path d="M170.32 10.695L167.931 24.9987C167.59 26.9813 166.692 28.4998 165.239 29.554C163.795 30.6099 162.001 31.0379 159.856 30.838L159.115 30.7438C156.813 30.3593 155.081 29.4315 153.921 27.9605C152.761 26.4894 152.353 24.6639 152.697 22.4838L155.092 8.15113L157.837 8.6097L155.457 22.8557C155.203 24.3775 155.424 25.6323 156.12 26.6199C156.818 27.5979 157.943 28.2164 159.494 28.4755C161.064 28.7377 162.333 28.519 163.301 27.8194C164.279 27.1214 164.895 26.0114 165.149 24.4896L167.532 10.2291L170.32 10.695Z" fill="#E47B31"/>
<path d="M182.108 26.6119C180.082 25.1305 178.724 23.7276 178.034 22.4034C177.357 21.0733 177.274 19.7114 177.785 18.3178C178.363 16.7408 179.469 15.6691 181.101 15.1028C182.746 14.5307 184.578 14.6145 186.595 15.3541C187.97 15.8584 189.097 16.5731 189.974 17.4983C190.861 18.4268 191.427 19.4662 191.67 20.6166C191.923 21.7703 191.847 22.9019 191.44 24.0113L188.785 23.038C189.229 21.8277 189.192 20.7376 188.674 19.7675C188.159 18.7883 187.201 18.0415 185.798 17.5271C184.496 17.0497 183.372 16.9653 182.427 17.274C181.494 17.5768 180.841 18.2371 180.468 19.2549C180.169 20.0709 180.259 20.8892 180.738 21.7098C181.23 22.5246 182.22 23.47 183.708 24.5462C185.205 25.6256 186.317 26.6211 187.044 27.5325C187.783 28.438 188.24 29.3491 188.413 30.2657C188.596 31.1856 188.501 32.1544 188.127 33.1722C187.532 34.795 186.422 35.865 184.797 36.3821C183.176 36.89 181.306 36.7557 179.188 35.979C177.813 35.4747 176.625 34.7428 175.625 33.7831C174.628 32.8142 173.972 31.752 173.657 30.5965C173.351 29.4443 173.412 28.2859 173.839 27.1215L176.493 28.0948C176.05 29.3051 176.143 30.4263 176.773 31.4584C177.416 32.4847 178.485 33.2718 179.98 33.8198C181.373 34.3308 182.546 34.4383 183.497 34.1421C184.448 33.846 185.103 33.2074 185.463 32.2264C185.823 31.2453 185.756 30.3628 185.264 29.5789C184.774 28.7858 183.722 27.7968 182.108 26.6119Z" fill="#E47B31"/>
<path d="M194.827 42.743L192.349 41.4119L202.444 22.6238L204.921 23.9549L194.827 42.743Z" fill="#E47B31"/>
<path d="M218.28 50.4859C216.716 52.1324 215.002 53.026 213.139 53.1666C211.289 53.3053 209.435 52.6774 207.575 51.2829C205.56 49.7712 204.484 47.8356 204.35 45.4762C204.223 43.1227 205.067 40.735 206.884 38.3131L208.114 36.6725C209.304 35.0866 210.631 33.903 212.096 33.1217C213.568 32.3463 215.064 32.0279 216.584 32.1666C218.109 32.2975 219.556 32.8756 220.923 33.9009C222.735 35.2603 223.808 36.858 224.14 38.6939C224.477 40.522 224.065 42.398 222.903 44.3218L220.642 42.6256C221.466 41.1197 221.778 39.816 221.579 38.7144C221.388 37.6187 220.706 36.6314 219.534 35.7525C218.097 34.6744 216.569 34.359 214.952 34.8063C213.343 35.2594 211.803 36.4664 210.332 38.4274L209.093 40.0797C207.704 41.9313 206.986 43.694 206.939 45.3678C206.893 47.0417 207.564 48.4001 208.955 49.443C210.205 50.3805 211.373 50.817 212.459 50.7526C213.559 50.6861 214.745 50.0318 216.019 48.7897L218.28 50.4859Z" fill="#E47B31"/>
</svg>
