<svg width="3873" height="3875" viewBox="0 0 3873 3875" fill="none" xmlns="http://www.w3.org/2000/svg">
<path d="M3759.29 1956.1L3872.99 1959.61L3871.78 1998.58C3871.39 2011.44 3868.51 2021.14 3863.15 2027.7C3857.78 2034.26 3850 2037.38 3839.8 2037.06C3834.59 2036.9 3829.95 2035.35 3825.87 2032.41C3821.8 2029.47 3818.69 2025.26 3816.57 2019.77C3814.72 2025.87 3811.42 2030.51 3806.68 2033.69C3802 2036.94 3796.43 2038.46 3789.97 2038.26C3779.3 2037.93 3771.21 2034.24 3765.69 2027.19C3760.18 2020.19 3757.62 2010.32 3758.01 1997.56L3759.29 1956.1ZM3809.98 1977.44L3774.45 1976.34L3773.78 1998.29C3773.59 2004.48 3774.97 2009.37 3777.94 2012.95C3780.9 2016.54 3785.11 2018.41 3790.58 2018.58C3802.4 2018.95 3808.62 2013.09 3809.26 2001.02L3809.98 1977.44ZM3824.51 1977.89L3823.91 1997.26C3823.72 2003.4 3824.95 2008.23 3827.61 2011.75C3830.31 2015.33 3834.21 2017.19 3839.31 2017.35C3844.94 2017.52 3849.05 2016.03 3851.64 2012.88C3854.24 2009.79 3855.64 2004.85 3855.85 1998.09L3856.45 1978.88L3824.51 1977.89Z" fill="#FCE3CF"/>
<path d="M3796.96 2159.8L3801.63 2113.32L3766.81 2109.82L3761.34 2164.15L3745.64 2162.57L3753.08 2088.57L3866.26 2099.95L3858.87 2173.41L3843.02 2171.82L3848.43 2118.03L3817.18 2114.88L3812.5 2161.37L3796.96 2159.8Z" fill="#FCE3CF"/>
<path d="M3824.26 2293.82L3829.97 2258.81L3733.43 2243.06L3736.59 2223.71L3833.13 2239.46L3838.78 2204.76L3854.51 2207.32L3839.99 2296.38L3824.26 2293.82Z" fill="#FCE3CF"/>
<path d="M3797.25 2415.56L3805.22 2381L3709.91 2359.02L3714.32 2339.91L3809.63 2361.89L3817.53 2327.63L3833.06 2331.21L3812.78 2419.14L3797.25 2415.56Z" fill="#FCE3CF"/>
<path d="M3719.42 2514.3L3733 2469.6L3699.51 2459.43L3683.64 2511.68L3668.54 2507.09L3690.15 2435.93L3798.99 2468.99L3777.53 2539.63L3762.28 2535L3778 2483.27L3747.95 2474.14L3734.37 2518.84L3719.42 2514.3Z" fill="#FCE3CF"/>
<path d="M3682.63 2597.26L3690.37 2576.64L3649.33 2561.24L3656.28 2542.73L3762.78 2582.7L3748.73 2620.15C3744.11 2632.43 3737.8 2640.89 3729.78 2645.5C3721.77 2650.11 3712.54 2650.46 3702.1 2646.54C3694.99 2643.87 3689.66 2639.9 3686.13 2634.63C3682.63 2629.42 3680.75 2623.26 3680.47 2616.15L3627.09 2623.4L3626.14 2623.05L3633.58 2603.23L3682.63 2597.26ZM3705.22 2582.21L3698.08 2601.23C3695.74 2607.47 3695.47 2612.93 3697.27 2617.61C3699.13 2622.31 3702.78 2625.69 3708.24 2627.74C3713.95 2629.88 3718.98 2629.9 3723.32 2627.8C3727.65 2625.76 3731.07 2621.53 3733.58 2615.13L3740.91 2595.6L3705.22 2582.21Z" fill="#FCE3CF"/>
<path d="M3611.03 2732.88C3615.73 2735.25 3619.39 2738.7 3622 2743.23C3624.67 2747.78 3626.8 2755.18 3628.39 2765.44C3635.36 2763.99 3640.99 2763.36 3645.27 2763.54C3649.54 2763.76 3653.29 2764.69 3656.55 2766.34C3664.5 2770.35 3669.56 2775.93 3671.72 2783.09C3673.94 2790.27 3672.98 2797.95 3668.85 2806.14C3665.12 2813.53 3659.89 2818.48 3653.15 2820.97C3646.43 2823.53 3639.86 2823.19 3633.44 2819.96C3629.21 2817.82 3625.84 2814.78 3623.34 2810.84C3620.89 2806.92 3619.12 2801.62 3618.05 2794.96L3616.51 2785.52L3583.47 2793.44C3587.62 2799.09 3593.11 2803.64 3599.95 2807.09L3592.52 2821.81C3580.01 2815.5 3571.24 2807.4 3566.19 2797.5L3541.02 2803.53L3550.94 2783.86L3560.59 2781.55C3558.81 2771.55 3560.45 2761.53 3565.52 2751.49C3570.58 2741.44 3577.29 2734.73 3585.64 2731.36C3594.01 2728.06 3602.48 2728.57 3611.03 2732.88ZM3578.8 2758.8C3575.92 2764.52 3575.13 2770.83 3576.43 2777.73L3613.78 2768.74L3613.33 2765.8C3611.91 2758.09 3608.48 2752.86 3603.04 2750.11C3598.35 2747.75 3593.77 2747.33 3589.32 2748.88C3584.86 2750.42 3581.36 2753.73 3578.8 2758.8ZM3648.95 2782.45C3645.04 2780.48 3638.93 2780.4 3630.6 2782.21L3632 2792.63L3632.65 2795.67C3633.76 2799.85 3636.31 2802.94 3640.31 2804.96C3642.96 2806.29 3645.72 2806.43 3648.59 2805.37C3651.5 2804.33 3653.73 2802.28 3655.28 2799.21C3656.95 2795.91 3657.16 2792.72 3655.91 2789.64C3654.66 2786.56 3652.34 2784.16 3648.95 2782.45Z" fill="#FCE3CF"/>
<path d="M3493.09 2975.36L3517.81 2936.83L3477.24 2910.8L3487.91 2894.16L3583.65 2955.58L3544.64 3016.41L3531.22 3007.8L3559.57 2963.61L3531.09 2945.35L3506.38 2983.88L3493.09 2975.36Z" fill="#FCE3CF"/>
<path d="M3406.78 3058.39L3433.09 3023.04L3417.35 2999.84L3429.62 2983.35L3495.21 3085.74L3484.62 3099.96L3367.67 3066.58L3379.99 3050.03L3406.78 3058.39ZM3442.56 3037.01L3422.88 3063.46L3470.58 3078.41L3442.56 3037.01Z" fill="#FCE3CF"/>
<path d="M3326.44 3160.7C3330.23 3163.95 3334.31 3165.12 3338.67 3164.19C3343 3163.31 3349.2 3160.28 3357.26 3155.13C3365.33 3149.97 3372.41 3146.43 3378.5 3144.53C3390.19 3140.9 3400.01 3142.49 3407.95 3149.31C3414.91 3155.28 3418.22 3163.02 3417.88 3172.54C3417.5 3182.1 3413.43 3191.4 3405.66 3200.46C3400.51 3206.46 3394.8 3210.87 3388.56 3213.68C3382.31 3216.48 3375.97 3217.46 3369.56 3216.63C3363.18 3215.82 3357.5 3213.28 3352.52 3209.01L3365.34 3194.07C3369.84 3197.93 3374.58 3199.53 3379.55 3198.85C3384.53 3198.25 3389.28 3195.32 3393.79 3190.06C3397.99 3185.16 3400.22 3180.45 3400.46 3175.92C3400.67 3171.44 3398.9 3167.58 3395.14 3164.36C3391.98 3161.65 3388.08 3160.84 3383.43 3161.93C3378.83 3163.06 3372.64 3166.12 3364.86 3171.11C3357.11 3176.13 3350.21 3179.58 3344.15 3181.45C3338.13 3183.35 3332.64 3183.82 3327.69 3182.87C3322.78 3181.96 3318.12 3179.6 3313.69 3175.8C3306.49 3169.63 3303.14 3161.94 3303.61 3152.75C3304.1 3143.62 3308.39 3134.34 3316.5 3124.89C3321.86 3118.64 3327.94 3113.88 3334.74 3110.59C3341.55 3107.37 3348.24 3106.04 3354.83 3106.61C3361.37 3107.22 3367.35 3109.85 3372.77 3114.49L3359.9 3129.49C3355 3125.29 3349.81 3123.65 3344.34 3124.59C3338.88 3125.52 3333.55 3129.02 3328.36 3135.06C3323.88 3140.28 3321.57 3145.09 3321.43 3149.5C3321.29 3153.98 3322.96 3157.71 3326.44 3160.7Z" fill="#FCE3CF"/>
<path d="M3276.12 3313.47L3300.92 3288.12L3231.01 3219.71L3244.72 3205.69L3314.63 3274.1L3339.22 3248.97L3350.61 3260.12L3287.51 3324.61L3276.12 3313.47Z" fill="#FCE3CF"/>
<path d="M3161.29 3354.63L3196.07 3323.44L3172.71 3297.38L3132.05 3333.84L3121.52 3322.09L3176.89 3272.44L3252.83 3357.14L3197.85 3406.42L3187.22 3394.55L3227.47 3358.46L3206.5 3335.08L3171.72 3366.27L3161.29 3354.63Z" fill="#FCE3CF"/>
<path d="M3084.23 3408.56L3101.56 3394.96L3074.5 3360.48L3090.05 3348.28L3160.27 3437.76L3128.81 3462.46C3118.48 3470.56 3108.7 3474.5 3099.45 3474.28C3090.2 3474.05 3082.14 3469.55 3075.26 3460.79C3070.56 3454.8 3068.08 3448.64 3067.8 3442.3C3067.52 3436.04 3069.11 3429.79 3072.57 3423.57L3023.19 3402.04L3022.57 3401.24L3039.22 3388.17L3084.23 3408.56ZM3111.35 3407.44L3095.37 3419.98C3090.12 3424.09 3087.06 3428.62 3086.16 3433.56C3085.3 3438.53 3086.67 3443.32 3090.28 3447.91C3094.04 3452.7 3098.32 3455.33 3103.12 3455.8C3107.89 3456.3 3113 3454.47 3118.48 3450.31L3134.89 3437.43L3111.35 3407.44Z" fill="#FCE3CF"/>
<path d="M2991.8 3447.28C2988.89 3449.31 2986.07 3450.05 2983.33 3449.49C2980.61 3448.97 2978.39 3447.47 2976.66 3445C2974.96 3442.57 2974.33 3439.99 2974.77 3437.26C2975.25 3434.58 2976.93 3432.22 2979.84 3430.19C2982.61 3428.25 2985.36 3427.5 2988.09 3427.94C2990.81 3428.39 2993.04 3429.85 2994.77 3432.32C2996.51 3434.8 2997.15 3437.4 2996.71 3440.12C2996.29 3442.89 2994.65 3445.28 2991.8 3447.28Z" fill="#FCE3CF"/>
<path d="M2840.59 3578.12L2881.08 3554.8L2863.61 3524.47L2816.29 3551.73L2808.41 3538.05L2872.86 3500.93L2929.63 3599.5L2865.65 3636.35L2857.7 3622.54L2904.55 3595.56L2888.87 3568.34L2848.39 3591.66L2840.59 3578.12Z" fill="#FCE3CF"/>
<path d="M2768.7 3639.81L2765.33 3687.23L2744.85 3697.27L2750.88 3631.49L2694.06 3595.49L2714.75 3585.34L2755.08 3612.03L2758.73 3563.77L2779.35 3553.66L2772.97 3620.66L2828.74 3656.13L2808.26 3666.17L2768.7 3639.81Z" fill="#FCE3CF"/>
<path d="M2589.17 3679.12C2585.67 3667.44 2586.26 3656.97 2590.94 3647.71C2595.64 3638.5 2603.99 3631.46 2616.01 3626.59C2624.41 3623.18 2632.62 3622.16 2640.65 3623.51C2648.64 3624.94 2655.86 3628.61 2662.31 3634.54C2668.76 3640.47 2674.03 3648.25 2678.11 3657.9L2682.1 3667.74C2686.13 3677.69 2687.92 3687.16 2687.47 3696.17C2687.02 3705.17 2684.34 3713.06 2679.44 3719.82C2674.49 3726.61 2667.7 3731.75 2659.06 3735.25C2647.43 3739.97 2636.78 3740.6 2627.12 3737.16C2617.46 3733.71 2609.72 3726.46 2603.88 3715.39L2622.12 3707.99C2626.07 3715.22 2630.5 3719.77 2635.42 3721.65C2640.31 3723.6 2646.19 3723.19 2653.04 3720.41C2661 3717.18 2665.95 3711.78 2667.88 3704.19C2669.78 3696.68 2668.5 3687.28 2664.03 3675.99L2660.25 3666.66C2655.63 3655.26 2650.08 3647.4 2643.6 3643.06C2637.07 3638.74 2629.87 3638.17 2622 3641.36C2614.81 3644.27 2610.06 3648.08 2607.75 3652.79C2605.44 3657.49 2605.33 3663.8 2607.42 3671.72L2589.17 3679.12Z" fill="#FCE3CF"/>
<path d="M2486.49 3728.26L2530.87 3713.67L2519.94 3680.42L2468.06 3697.47L2463.14 3682.48L2533.79 3659.25L2569.31 3767.31L2499.18 3790.37L2494.2 3775.23L2545.56 3758.35L2535.75 3728.51L2491.37 3743.1L2486.49 3728.26Z" fill="#FCE3CF"/>
<path d="M2370.63 3759.71L2415.86 3748L2407.09 3714.12L2354.22 3727.8L2350.27 3712.53L2422.27 3693.89L2450.77 3804.01L2379.3 3822.51L2375.3 3807.08L2427.64 3793.54L2419.77 3763.13L2374.54 3774.84L2370.63 3759.71Z" fill="#FCE3CF"/>
<path d="M2308.87 3721.38L2329.76 3833.19L2296.73 3839.36C2286.85 3841.21 2277.69 3840.64 2269.24 3837.66C2260.73 3834.69 2253.63 3829.56 2247.92 3822.25C2242.21 3814.95 2238.38 3806.07 2236.43 3795.63L2235.38 3790.02C2233.4 3779.42 2233.79 3769.71 2236.53 3760.88C2239.23 3752.05 2244.09 3744.74 2251.11 3738.92C2258.08 3733.12 2266.61 3729.27 2276.69 3727.39L2308.87 3721.38ZM2307.4 3821.16L2292.34 3740.52L2279.67 3742.89C2269.48 3744.79 2262.26 3749.42 2258.02 3756.78C2253.74 3764.21 2252.66 3773.89 2254.79 3785.84L2255.95 3792.06C2258.22 3804.19 2262.58 3812.97 2269.05 3818.38C2275.52 3823.8 2283.77 3825.57 2293.81 3823.69L2307.4 3821.16Z" fill="#FCE3CF"/>
<path d="M2081.83 3813.35L2059.89 3869.11L2038.08 3870.8L2070.55 3796.2L2067.32 3754.45L2087.11 3752.92L2090.33 3794.67L2133.96 3863.38L2112.08 3865.08L2081.83 3813.35Z" fill="#FCE3CF"/>
<path d="M1899.46 3813.24C1899.37 3802.1 1901.23 3792.29 1905.01 3783.83C1908.8 3775.41 1914.28 3768.91 1921.43 3764.32C1928.53 3759.79 1936.74 3757.49 1946.06 3757.41C1955.28 3757.34 1963.53 3759.52 1970.8 3763.94C1978.02 3768.42 1983.65 3774.81 1987.67 3783.11C1991.64 3791.41 1993.69 3801.01 1993.83 3811.89L1993.88 3818.3C1993.96 3829.39 1992.09 3839.2 1988.25 3847.72C1984.35 3856.24 1978.86 3862.76 1971.76 3867.3C1964.6 3871.88 1956.39 3874.21 1947.12 3874.28C1937.85 3874.36 1929.63 3872.18 1922.46 3867.76C1915.24 3863.38 1909.64 3857.02 1905.67 3848.67C1901.7 3840.36 1899.65 3830.66 1899.51 3819.57L1899.46 3813.24ZM1919.27 3819.03C1919.37 3831.63 1921.84 3841.28 1926.68 3847.96C1931.47 3854.64 1938.24 3857.95 1946.99 3857.88C1955.54 3857.81 1962.2 3854.4 1966.99 3847.65C1971.73 3840.94 1974.11 3831.47 1974.12 3819.23L1974.07 3812.67C1973.97 3800.17 1971.47 3790.53 1966.58 3783.74C1961.63 3776.96 1954.83 3773.6 1946.19 3773.66C1937.44 3773.73 1930.75 3777.12 1926.11 3783.82C1921.42 3790.52 1919.13 3800.28 1919.23 3813.09L1919.27 3819.03Z" fill="#FCE3CF"/>
<path d="M1755.18 3864.85L1760.46 3789.02C1761.29 3776.96 1765.83 3767.67 1774.06 3761.15C1782.24 3754.67 1792.75 3751.87 1805.58 3752.77C1818.57 3753.67 1828.64 3757.84 1835.8 3765.28C1842.95 3772.78 1846.1 3782.68 1845.24 3794.99L1839.98 3870.75L1820.34 3869.38L1825.62 3793.47C1826.14 3785.89 1824.62 3779.96 1821.06 3775.69C1817.49 3771.42 1811.97 3769.03 1804.48 3768.51C1789.31 3767.45 1781.17 3774.93 1780.06 3790.93L1774.82 3866.22L1755.18 3864.85Z" fill="#FCE3CF"/>
<path d="M1669.74 3783.83L1691.56 3786.88L1697.62 3743.47L1717.2 3746.2L1701.47 3858.86L1661.86 3853.33C1648.86 3851.52 1639.23 3847.2 1632.98 3840.39C1626.72 3833.57 1624.37 3824.65 1625.91 3813.61C1626.96 3806.08 1629.67 3800.01 1634.05 3795.42C1638.36 3790.87 1643.96 3787.68 1650.84 3785.85L1632.1 3735.35L1632.24 3734.35L1653.21 3737.27L1669.74 3783.83ZM1689.37 3802.59L1669.25 3799.78C1662.65 3798.86 1657.26 3799.79 1653.09 3802.57C1648.9 3805.41 1646.41 3809.71 1645.6 3815.49C1644.76 3821.52 1645.84 3826.43 1648.83 3830.22C1651.78 3833.99 1656.65 3836.41 1663.44 3837.46L1684.1 3840.35L1689.37 3802.59Z" fill="#FCE3CF"/>
<path d="M1506.45 3707.88L1525.62 3712.38L1499.64 3823.12L1480.47 3818.62L1506.45 3707.88Z" fill="#FCE3CF"/>
<path d="M1398.63 3797.05L1392.58 3704.09L1335.92 3778L1311.47 3770.57L1344.54 3661.73L1363.37 3667.46L1352.47 3703.34L1336.03 3750.76L1393.65 3676.65L1407.18 3680.76L1413.79 3774.3L1426.48 3725.82L1437.38 3689.94L1456.22 3695.66L1423.15 3804.5L1398.63 3797.05Z" fill="#FCE3CF"/>
<path d="M1229.44 3645.45L1270.39 3661.7L1288.73 3640.48L1307.83 3648.06L1225.94 3737.94L1209.46 3731.4L1211.39 3609.8L1230.56 3617.4L1229.44 3645.45ZM1259.36 3674.47L1228.72 3662.31L1226.64 3712.25L1259.36 3674.47Z" fill="#FCE3CF"/>
<path d="M1091.35 3568.68C1097.4 3565.65 1104.3 3564.49 1112.07 3565.19C1119.83 3565.9 1127.88 3568.27 1136.22 3572.32C1144.8 3576.49 1151.44 3582.12 1156.16 3589.22C1160.87 3596.32 1163.28 3604.35 1163.38 3613.32C1163.42 3622.31 1161.16 3631.66 1156.61 3641.38L1152.72 3649.39C1145.21 3664.85 1135.65 3675.12 1124.03 3680.19C1112.4 3685.3 1099.95 3684.64 1086.69 3678.2C1075.31 3672.67 1067.63 3665.47 1063.67 3656.59C1059.7 3647.71 1059.61 3637.65 1063.39 3626.4L1080.82 3634.87C1076.8 3648.15 1080.95 3657.78 1093.27 3663.76C1101.24 3667.63 1108.7 3667.7 1115.67 3663.96C1122.57 3660.25 1128.79 3652.88 1134.32 3641.84L1138.15 3633.97C1143.52 3622.92 1145.38 3613.19 1143.72 3604.8C1142 3596.44 1136.99 3590.24 1128.69 3586.21C1119.61 3581.8 1112.14 3580.72 1106.3 3582.97L1096.57 3603L1117.65 3613.24L1111.09 3626.73L1072.3 3607.89L1091.35 3568.68Z" fill="#FCE3CF"/>
<path d="M1038.1 3522.22L1055.27 3531.86L999.591 3631.05L982.423 3621.41L1038.1 3522.22Z" fill="#FCE3CF"/>
<path d="M918.645 3448.86L935.322 3459.47L934.777 3554.78L978.1 3486.69L994.776 3497.3L933.713 3593.27L917.037 3582.66L917.617 3487.01L874.127 3555.36L857.582 3544.83L918.645 3448.86Z" fill="#FCE3CF"/>
<path d="M810.153 3402.61L845.403 3429.04L868.669 3413.39L885.106 3425.72L782.482 3490.94L768.294 3480.3L802.106 3363.47L818.606 3375.84L810.153 3402.61ZM831.403 3438.47L805.028 3418.69L789.904 3466.33L831.403 3438.47Z" fill="#FCE3CF"/>
<path d="M647.943 3360.42L674.778 3383.61L738.736 3309.61L753.573 3322.43L689.615 3396.43L716.214 3419.42L705.792 3431.48L637.522 3372.48L647.943 3360.42Z" fill="#FCE3CF"/>
<path d="M669.188 3245.61L683.409 3259.23L604.748 3341.39L590.527 3327.78L669.188 3245.61Z" fill="#FCE3CF"/>
<path d="M530.416 3179.14C538.578 3171.55 547.061 3166.29 555.865 3163.37C564.63 3160.48 573.119 3160.13 581.332 3162.3C589.471 3164.48 596.715 3168.98 603.063 3175.81C609.341 3182.56 613.304 3190.11 614.954 3198.46C616.53 3206.81 615.614 3215.27 612.207 3223.85C608.764 3232.38 603.075 3240.37 595.138 3247.83L590.447 3252.19C582.323 3259.74 573.822 3264.98 564.945 3267.9C556.032 3270.78 547.507 3271.14 539.367 3268.96C531.155 3266.78 523.892 3262.3 517.579 3255.51C511.266 3248.72 507.32 3241.19 505.741 3232.91C504.089 3224.63 505.003 3216.21 508.484 3207.64C511.927 3199.1 517.693 3191.04 525.782 3183.45L530.416 3179.14ZM539.527 3197.66C530.297 3206.24 524.853 3214.57 523.195 3222.66C521.503 3230.7 523.635 3237.93 529.594 3244.34C535.41 3250.59 542.428 3253.21 550.646 3252.18C558.791 3251.15 567.381 3246.5 576.415 3238.24L581.221 3233.78C590.375 3225.26 595.802 3216.91 597.5 3208.72C599.163 3200.49 597.05 3193.21 591.163 3186.87C585.205 3180.47 578.188 3177.82 570.114 3178.92C562.005 3179.99 553.258 3184.89 543.875 3193.61L539.527 3197.66Z" fill="#FCE3CF"/>
<path d="M485.475 3039.44L497.847 3054.85L466.643 3144.91L529.583 3094.4L541.955 3109.81L453.242 3181.01L440.87 3165.59L472.22 3075.22L409.037 3125.93L396.763 3110.64L485.475 3039.44Z" fill="#FCE3CF"/>
<path d="M417.862 2943.93L321.892 3004.99L300.964 2972.1C294.058 2961.25 290.977 2951.6 291.721 2943.17C292.464 2934.73 297.142 2927.77 305.755 2922.29C310.149 2919.5 314.859 2918.17 319.884 2918.3C324.91 2918.44 329.843 2920.18 334.684 2923.52C332.791 2917.44 332.905 2911.75 335.027 2906.45C337.076 2901.13 340.826 2896.74 346.275 2893.27C355.283 2887.54 364.049 2886.04 372.573 2888.76C381.07 2891.44 388.743 2898.17 395.593 2908.93L417.862 2943.93ZM363.946 2954.81L393.937 2935.73L382.152 2917.2C378.825 2911.98 374.929 2908.71 370.463 2907.42C365.997 2906.12 361.457 2906.95 356.843 2909.88C346.868 2916.23 345.014 2924.57 351.281 2934.9L363.946 2954.81ZM351.686 2962.61L341.286 2946.26C337.986 2941.08 334.25 2937.78 330.075 2936.36C325.829 2934.92 321.553 2935.58 317.247 2938.32C312.501 2941.34 309.94 2944.88 309.564 2948.95C309.161 2952.97 310.776 2957.84 314.411 2963.55L324.728 2979.76L351.686 2962.61Z" fill="#FCE3CF"/>
<path d="M275.407 2802.53L297.821 2843.52L328.53 2826.73L302.33 2778.81L316.176 2771.24L351.86 2836.5L252.057 2891.07L216.635 2826.3L230.619 2818.65L256.557 2866.08L284.112 2851.02L261.698 2810.03L275.407 2802.53Z" fill="#FCE3CF"/>
<path d="M174.612 2700.95L189.516 2733.14L278.274 2692.03L286.514 2709.83L197.757 2750.93L212.53 2782.83L198.068 2789.53L160.15 2707.65L174.612 2700.95Z" fill="#FCE3CF"/>
<path d="M129.48 2587.19L142.313 2620.25L233.498 2584.86L240.593 2603.14L149.408 2638.53L162.128 2671.31L147.27 2677.07L114.622 2592.95L129.48 2587.19Z" fill="#FCE3CF"/>
<path d="M138.885 2463.36L152.802 2507.96L186.213 2497.53L169.945 2445.4L185.01 2440.7L207.166 2511.7L98.5808 2545.58L76.5875 2475.11L91.8014 2470.36L107.907 2521.97L137.887 2512.61L123.969 2468.01L138.885 2463.36Z" fill="#FCE3CF"/>
<path d="M122.687 2374.25L127.882 2395.66L170.474 2385.33L175.135 2404.53L64.5927 2431.36L55.1605 2392.48C52.0655 2379.73 52.5365 2369.19 56.5734 2360.87C60.6103 2352.55 68.0445 2347.07 78.876 2344.44C86.2657 2342.65 92.902 2342.94 98.7848 2345.32C104.605 2347.66 109.63 2351.69 113.86 2357.42L153.92 2321.41L154.907 2321.17L159.9 2341.75L122.687 2374.25ZM112.47 2399.4L107.68 2379.66C106.108 2373.18 103.26 2368.51 99.1365 2365.65C94.9623 2362.81 90.0408 2362.07 84.372 2363.45C78.4501 2364.89 74.2809 2367.69 71.8644 2371.87C69.4356 2376 68.9812 2381.41 70.5012 2388.12L75.4199 2408.39L112.47 2399.4Z" fill="#FCE3CF"/>
<path d="M105.897 2224.1C100.682 2224.79 95.7183 2224 91.0066 2221.73C86.2432 2219.47 80.3156 2214.55 73.2235 2206.97C68.2766 2212.09 63.9825 2215.78 60.341 2218.05C56.6927 2220.26 53.0613 2221.61 49.4467 2222.08C40.6168 2223.25 33.292 2221.48 27.4723 2216.78C21.6011 2212.09 18.0668 2205.2 16.8694 2196.12C15.7876 2187.9 17.3301 2180.87 21.4969 2175.02C25.6052 2169.12 31.2223 2165.7 38.3482 2164.76C43.0472 2164.14 47.5412 2164.76 51.8302 2166.61C56.0676 2168.47 60.5056 2171.85 65.1444 2176.75L71.7315 2183.69L94.5792 2158.53C87.9677 2156.2 80.8667 2155.53 73.276 2156.53L71.1227 2140.19C85.0131 2138.36 96.8277 2140.11 106.567 2145.45L123.979 2126.29L126.857 2148.13L120.18 2155.48C127.283 2162.73 131.569 2171.94 133.039 2183.09C134.508 2194.25 132.742 2203.57 127.74 2211.06C122.679 2218.5 115.398 2222.85 105.897 2224.1ZM117.941 2184.53C117.104 2178.18 114.205 2172.52 109.243 2167.55L83.4419 2196.01L85.4623 2198.19C90.9777 2203.77 96.7561 2206.16 102.798 2205.36C108.013 2204.67 112.026 2202.44 114.837 2198.65C117.648 2194.87 118.683 2190.16 117.941 2184.53ZM46.6552 2204.48C50.9927 2203.91 56.0901 2200.53 61.9472 2194.35L54.9278 2186.53L52.6751 2184.38C49.4132 2181.56 45.5619 2180.44 41.1211 2181.02C38.1778 2181.41 35.8197 2182.85 34.0468 2185.34C32.2222 2187.84 31.5344 2190.79 31.9834 2194.2C32.4665 2197.87 34.0901 2200.62 36.8545 2202.47C39.6188 2204.31 42.8857 2204.98 46.6552 2204.48Z" fill="#FCE3CF"/>
<path d="M66.6025 1955.75L67.8393 2001.51L116.025 2000.21L116.559 2019.97L2.85031 2023.04L0.898065 1950.8L16.8297 1950.37L18.248 2002.85L52.0638 2001.94L50.827 1956.17L66.6025 1955.75Z" fill="#FCE3CF"/>
<path d="M91.145 1835L89.2751 1879.02L115.344 1889.35L114.472 1909.88L2.64841 1862.12L3.40103 1844.41L118.875 1806.22L118 1826.83L91.145 1835ZM73.5874 1872.8L74.9865 1839.86L27.1419 1854.33L73.5874 1872.8Z" fill="#FCE3CF"/>
<path d="M99.8628 1705.74C94.894 1705.18 90.8664 1706.51 87.7799 1709.73C84.6992 1712.9 81.2759 1718.88 77.5102 1727.68C73.7444 1736.48 69.8773 1743.39 65.9088 1748.39C58.2828 1757.96 49.2681 1762.17 38.8647 1761C29.7552 1759.98 22.6657 1755.43 17.5961 1747.37C12.5323 1739.25 10.6656 1729.27 11.9961 1717.42C12.8793 1709.55 15.1158 1702.7 18.7056 1696.87C22.2955 1691.03 26.9794 1686.66 32.7573 1683.74C38.4835 1680.82 44.6074 1679.73 51.1289 1680.46L48.9327 1700.02C43.0323 1699.36 38.2166 1700.71 34.4858 1704.06C30.709 1707.36 28.4342 1712.45 27.6615 1719.33C26.941 1725.75 27.7519 1730.9 30.0942 1734.78C32.4423 1738.61 36.0749 1740.8 40.9919 1741.35C45.1326 1741.81 48.8154 1740.29 52.0403 1736.77C55.2134 1733.25 58.6137 1727.24 62.241 1718.73C65.8167 1710.23 69.5858 1703.5 73.5486 1698.54C77.4595 1693.58 81.7283 1690.1 86.3549 1688.11C90.9297 1686.11 96.1156 1685.43 101.912 1686.08C111.332 1687.14 118.431 1691.6 123.207 1699.48C127.938 1707.29 129.609 1717.39 128.22 1729.76C127.302 1737.94 124.956 1745.3 121.181 1751.84C117.36 1758.33 112.57 1763.19 106.808 1766.43C101.053 1769.61 94.6302 1770.8 87.5393 1770L89.7442 1750.36C96.1623 1751.08 101.369 1749.52 105.365 1745.67C109.361 1741.82 111.804 1735.93 112.693 1728.01C113.46 1721.18 112.663 1715.9 110.303 1712.18C107.898 1708.4 104.418 1706.25 99.8628 1705.74Z" fill="#FCE3CF"/>
<path d="M56.6458 1545.3L50.267 1580.2L146.485 1597.79L142.958 1617.08L46.7404 1599.48L40.4178 1634.07L24.7402 1631.2L40.9681 1542.44L56.6458 1545.3Z" fill="#FCE3CF"/>
<path d="M128.392 1448.03L117.03 1493.35L150.98 1501.86L164.26 1448.89L179.567 1452.73L161.48 1524.87L51.1451 1497.21L69.0993 1425.6L84.5583 1429.47L71.4109 1481.91L101.874 1489.55L113.236 1444.23L128.392 1448.03Z" fill="#FCE3CF"/>
<path d="M160.143 1366.06L153.422 1387.04L195.16 1400.41L189.13 1419.23L80.8031 1384.53L93.0071 1346.43C97.0116 1333.93 102.905 1325.18 110.687 1320.19C118.468 1315.19 127.666 1314.39 138.281 1317.79C145.522 1320.11 151.034 1323.81 154.816 1328.91C158.565 1333.94 160.752 1340 161.379 1347.09L214.334 1337.23L215.301 1337.54L208.842 1357.7L160.143 1366.06ZM138.318 1382.2L144.516 1362.85C146.55 1356.5 146.552 1351.04 144.521 1346.45C142.441 1341.84 138.624 1338.65 133.069 1336.87C127.266 1335.01 122.244 1335.24 118.005 1337.54C113.782 1339.8 110.572 1344.19 108.375 1350.7L102.011 1370.57L138.318 1382.2Z" fill="#FCE3CF"/>
<path d="M216.327 1278.14C217.596 1274.83 219.524 1272.64 222.111 1271.57C224.649 1270.48 227.328 1270.47 230.148 1271.56C232.92 1272.62 234.885 1274.41 236.042 1276.92C237.15 1279.41 237.07 1282.3 235.801 1285.61C234.588 1288.77 232.727 1290.93 230.219 1292.09C227.711 1293.24 225.046 1293.28 222.226 1292.2C219.406 1291.12 217.417 1289.32 216.26 1286.81C215.054 1284.29 215.076 1281.39 216.327 1278.14Z" fill="#FCE3CF"/>
<path d="M269.015 1083.95L248.443 1125.89L279.867 1141.31L303.914 1092.28L318.083 1099.23L285.332 1166L183.204 1115.91L215.714 1049.63L230.023 1056.65L206.217 1105.18L234.414 1119.01L254.987 1077.07L269.015 1083.95Z" fill="#FCE3CF"/>
<path d="M293.223 994.169L269.544 952.944L280.929 933.176L312.653 991.115L379.89 989.269L368.388 1009.24L320.032 1009.61L343.941 1051.69L332.478 1071.59L300.371 1012.44L234.297 1014.14L245.682 994.376L293.223 994.169Z" fill="#FCE3CF"/>
<path d="M418.217 863.765C427.646 871.49 433.009 880.499 434.308 890.789C435.564 901.051 432.572 911.562 425.331 922.321C420.272 929.84 414.037 935.281 406.626 938.643C399.202 941.934 391.158 942.925 382.497 941.616C373.835 940.307 365.118 936.796 356.345 931.081L347.53 925.149C338.629 919.159 331.848 912.304 327.186 904.584C322.525 896.865 320.335 888.831 320.616 880.483C320.927 872.091 323.685 864.028 328.89 856.293C335.897 845.88 344.369 839.401 354.304 836.859C364.239 834.316 374.719 836.001 385.744 841.913L374.753 858.247C367.445 854.459 361.225 853.161 356.092 854.352C350.944 855.471 346.306 859.099 342.177 865.235C337.379 872.365 336.301 879.612 338.941 886.976C341.568 894.268 347.886 901.344 357.896 908.206L366.257 913.832C376.455 920.695 385.454 924.114 393.255 924.09C401.085 924.022 407.369 920.467 412.109 913.424C416.441 906.985 418.251 901.171 417.536 895.982C416.822 890.793 413.385 885.499 407.226 880.098L418.217 863.765Z" fill="#FCE3CF"/>
<path d="M478.711 761.406L450.003 798.264L477.616 819.771L511.172 776.688L523.623 786.385L477.92 845.062L388.18 775.164L433.546 716.919L446.119 726.713L412.899 769.364L437.676 788.663L466.384 751.805L478.711 761.406Z" fill="#FCE3CF"/>
<path d="M553.106 674.803L522.173 709.815L548.403 732.989L584.56 692.063L596.386 702.512L547.143 758.25L461.897 682.936L510.778 627.608L522.722 638.16L486.927 678.676L510.464 699.47L541.396 664.458L553.106 674.803Z" fill="#FCE3CF"/>
<path d="M628.691 668.249L548.844 587.233L572.77 563.652C579.929 556.596 587.845 551.939 596.516 549.682C605.225 547.388 613.988 547.673 622.806 550.536C631.624 553.399 639.763 558.614 647.221 566.182L651.224 570.244C658.792 577.922 663.906 586.191 666.568 595.049C669.266 603.871 669.331 612.655 666.763 621.402C664.232 630.112 659.313 638.068 652.005 645.271L628.691 668.249ZM574.109 584.71L631.69 643.134L640.872 634.086C648.253 626.81 651.644 618.935 651.042 610.46C650.442 601.911 645.919 593.279 637.475 584.562L633.033 580.055C624.368 571.264 615.84 566.432 607.45 565.561C599.059 564.69 591.228 567.837 583.957 575.003L574.109 584.71Z" fill="#FCE3CF"/>
<path d="M763.282 465.94L750.166 407.47L767.276 393.84L782.239 473.813L808.33 506.566L792.809 518.93L766.718 486.177L692.053 453.762L709.224 440.084L763.282 465.94Z" fill="#FCE3CF"/>
<path d="M909.104 366.935C915.427 376.113 919.396 385.269 921.009 394.404C922.593 403.496 921.711 411.946 918.363 419.756C915.029 427.493 909.523 434.006 901.846 439.295C894.255 444.526 886.208 447.35 877.705 447.769C869.215 448.116 860.977 445.981 852.989 441.365C845.044 436.719 837.962 429.929 831.744 420.995L828.109 415.719C821.815 406.584 817.868 397.413 816.268 388.205C814.71 378.969 815.599 370.482 818.933 362.745C822.281 354.936 827.772 348.401 835.406 343.141C843.041 337.881 851.066 335.071 859.483 334.711C867.914 334.279 876.116 336.407 884.091 341.096C892.035 345.742 899.176 352.618 905.513 361.724L909.104 366.935ZM889.459 373.26C882.307 362.881 874.853 356.284 867.095 353.47C859.38 350.626 851.92 351.687 844.715 356.651C837.681 361.498 834.076 368.061 833.899 376.342C833.736 384.55 837.083 393.724 843.942 403.862L847.665 409.266C854.757 419.559 862.233 426.141 870.093 429.011C877.996 431.852 885.507 430.819 892.626 425.914C899.832 420.949 903.473 414.393 903.551 406.243C903.671 398.064 900.097 388.7 892.827 378.149L889.459 373.26Z" fill="#FCE3CF"/>
<path d="M992.901 246.262L1031.32 311.852C1037.43 322.279 1038.93 332.509 1035.81 342.543C1032.71 352.506 1025.61 360.739 1014.51 367.242C1003.28 373.823 992.608 376.06 982.5 373.953C972.366 371.801 964.18 365.399 957.941 354.748L919.558 289.225L936.546 279.274L975.007 344.932C978.851 351.493 983.449 355.53 988.801 357.042C994.154 358.555 1000.07 357.415 1006.54 353.625C1019.66 345.938 1022.17 335.173 1014.06 321.332L975.913 256.213L992.901 246.262Z" fill="#FCE3CF"/>
<path d="M1107.99 264.988L1088.24 274.763L1107.69 314.041L1089.97 322.81L1039.51 220.869L1075.35 203.122C1087.12 197.299 1097.5 195.442 1106.51 197.55C1115.51 199.659 1122.49 205.708 1127.43 215.696C1130.81 222.511 1131.98 229.049 1130.95 235.311C1129.95 241.503 1127.12 247.291 1122.46 252.677L1166.4 283.841L1166.85 284.752L1147.87 294.145L1107.99 264.988ZM1081.2 260.55L1099.41 251.538C1105.38 248.58 1109.31 244.775 1111.19 240.124C1113.05 235.426 1112.69 230.464 1110.1 225.236C1107.4 219.775 1103.74 216.325 1099.13 214.886C1094.57 213.423 1089.19 214.171 1082.98 217.128L1064.29 226.382L1081.2 260.55Z" fill="#FCE3CF"/>
<path d="M1290.12 233.149L1271.74 240.203L1230.98 134.006L1249.36 126.952L1290.12 233.149Z" fill="#FCE3CF"/>
<path d="M1335.64 96.2164L1392.66 169.886L1398.28 76.9266L1422.7 69.4084L1456.17 178.121L1437.36 183.915L1426.32 148.076L1413.43 99.5656L1407.12 193.226L1393.6 197.388L1335.8 123.551L1352.4 170.837L1363.44 206.676L1344.62 212.47L1311.15 103.758L1335.64 96.2164Z" fill="#FCE3CF"/>
<path d="M1550.51 128.889L1507.5 138.462L1504.26 166.317L1484.2 170.781L1501.43 50.4122L1518.74 46.5592L1585.47 148.24L1565.34 152.721L1550.51 128.889ZM1509.45 121.7L1541.64 114.537L1515.29 72.0582L1509.45 121.7Z" fill="#FCE3CF"/>
<path d="M1704.31 114.425C1701.02 120.332 1695.97 125.183 1689.16 128.977C1682.35 132.771 1674.36 135.344 1665.19 136.696C1655.76 138.086 1647.09 137.178 1639.2 133.973C1631.3 130.767 1624.79 125.489 1619.65 118.139C1614.56 110.729 1611.15 101.729 1609.43 91.1371L1608.13 82.326C1605.62 65.3223 1607.74 51.4541 1614.48 40.7217C1621.2 29.9377 1631.86 23.471 1646.44 21.3215C1658.96 19.4759 1669.36 21.1016 1677.64 26.1986C1685.92 31.2957 1691.67 39.5566 1694.88 50.9813L1675.71 53.8068C1671.55 40.5743 1662.69 34.9568 1649.14 36.9544C1640.38 38.2456 1634.18 42.398 1630.52 49.4118C1626.92 56.3664 1625.93 65.961 1627.58 78.1956L1628.86 86.852C1630.65 99.0123 1634.59 108.091 1640.69 114.09C1646.83 120.028 1654.46 122.326 1663.58 120.981C1673.58 119.508 1680.35 116.193 1683.91 111.035L1680.66 89.0078L1657.48 92.4257L1655.29 77.586L1697.95 71.2972L1704.31 114.425Z" fill="#FCE3CF"/>
<path d="M1777.72 121.85L1758.11 123.594L1748.03 10.2908L1767.64 8.54686L1777.72 121.85Z" fill="#FCE3CF"/>
<path d="M1919.66 114.641L1899.9 115.251L1846.73 36.1515L1849.22 116.816L1829.47 117.426L1825.95 3.7306L1845.71 3.1204L1899.05 82.5273L1896.55 1.55027L1916.15 0.944896L1919.66 114.641Z" fill="#FCE3CF"/>
<path d="M2041.83 91.3446L1997.82 89.3049L1987.38 115.334L1966.86 114.383L2015.04 2.74401L2032.76 3.56496L2070.5 119.186L2049.89 118.231L2041.83 91.3446ZM2004.09 73.6413L2037.03 75.1674L2022.75 27.2674L2004.09 73.6413Z" fill="#FCE3CF"/>
<path d="M2202.62 34.9525L2167.39 30.8604L2156.1 128.02L2136.63 125.757L2147.91 28.598L2112.99 24.5419L2114.83 8.71086L2204.46 19.1215L2202.62 34.9525Z" fill="#FCE3CF"/>
<path d="M2254.8 142.596L2235.4 139.278L2254.57 27.155L2273.97 30.473L2254.8 142.596Z" fill="#FCE3CF"/>
<path d="M2405.4 119.456C2402.9 130.317 2398.82 139.425 2393.17 146.781C2387.53 154.086 2380.7 159.138 2372.68 161.939C2364.72 164.7 2356.19 165.034 2347.11 162.939C2338.13 160.867 2330.61 156.836 2324.56 150.845C2318.58 144.814 2314.59 137.294 2312.61 128.285C2310.67 119.287 2310.9 109.478 2313.3 98.8595L2314.74 92.6171C2317.23 81.807 2321.33 72.7046 2327.05 65.3098C2332.81 57.9267 2339.68 52.8545 2347.63 50.0931C2355.66 47.2927 2364.18 46.9341 2373.22 49.0172C2382.25 51.1003 2389.74 55.1258 2395.69 61.0937C2401.7 67.0225 2405.66 74.5113 2407.59 83.56C2409.52 92.558 2409.27 102.468 2406.82 113.29L2405.4 119.456ZM2387.48 109.229C2390.31 96.9472 2390.14 86.9945 2386.98 79.3709C2383.88 71.7589 2378.06 66.97 2369.53 65.0039C2361.21 63.0846 2353.93 64.8543 2347.7 70.3129C2341.54 75.7324 2337.03 84.3938 2334.17 96.297L2332.7 102.692C2329.89 114.872 2330.08 124.831 2333.27 132.567C2336.5 140.316 2342.34 145.162 2350.76 147.104C2359.29 149.07 2366.58 147.332 2372.65 141.889C2378.76 136.458 2383.26 127.5 2386.14 115.015L2387.48 109.229Z" fill="#FCE3CF"/>
<path d="M2521.06 210.09L2502.19 204.202L2477.83 112.058L2453.79 189.097L2434.92 183.209L2468.81 74.6239L2487.67 80.512L2512.09 173L2536.23 95.663L2554.94 101.505L2521.06 210.09Z" fill="#FCE3CF"/>
<path d="M2625.02 248.803L2670.5 144.541L2706.23 160.129C2718.02 165.272 2725.97 171.55 2730.07 178.963C2734.16 186.376 2734.17 194.76 2730.09 204.117C2728.01 208.891 2724.84 212.625 2720.6 215.32C2716.35 218.014 2711.29 219.329 2705.41 219.264C2710.38 223.249 2713.46 228.032 2714.66 233.613C2715.93 239.168 2715.28 244.905 2712.7 250.825C2708.43 260.611 2702 266.756 2693.4 269.258C2684.86 271.781 2674.74 270.492 2663.04 265.39L2625.02 248.803ZM2663.66 209.659L2649.45 242.241L2669.57 251.019C2675.25 253.497 2680.3 254.025 2684.73 252.604C2689.16 251.183 2692.46 247.966 2694.65 242.953C2699.38 232.116 2696.26 224.163 2685.28 219.093L2663.66 209.659ZM2669.47 196.34L2687.23 204.087C2692.86 206.544 2697.8 207.195 2702.06 206.039C2706.38 204.857 2709.56 201.926 2711.61 197.248C2713.85 192.092 2714 187.723 2712.04 184.14C2710.13 180.578 2706.07 177.444 2699.86 174.737L2682.25 167.052L2669.47 196.34Z" fill="#FCE3CF"/>
<path d="M2822.64 286.205L2781.16 264.705L2765.05 295.779L2813.53 320.91L2806.27 334.921L2740.24 300.693L2792.59 199.704L2858.13 233.68L2850.8 247.829L2802.8 222.95L2788.35 250.833L2829.83 272.333L2822.64 286.205Z" fill="#FCE3CF"/>
<path d="M2966.91 315.98L2936.57 297.604L2885.89 381.265L2869.12 371.105L2919.8 287.444L2889.73 269.23L2897.98 255.598L2975.16 302.348L2966.91 315.98Z" fill="#FCE3CF"/>
<path d="M3072.86 388.474L3043.8 368.137L2987.72 448.274L2971.65 437.031L3027.73 356.894L2998.93 336.736L3008.07 323.678L3082 375.417L3072.86 388.474Z" fill="#FCE3CF"/>
<path d="M3125.8 489.547L3089.26 460.438L3067.45 487.814L3110.17 521.84L3100.33 534.183L3042.16 487.842L3113.04 398.871L3170.78 444.871L3160.85 457.337L3118.57 423.652L3099 448.217L3135.54 477.326L3125.8 489.547Z" fill="#FCE3CF"/>
<path d="M3190.79 555.191L3174.49 540.366L3145 572.786L3130.38 559.485L3206.93 475.343L3236.51 502.26C3246.22 511.093 3251.74 520.086 3253.05 529.241C3254.37 538.396 3251.28 547.096 3243.78 555.341C3238.66 560.966 3233 564.441 3226.8 565.767C3220.67 567.089 3214.24 566.563 3207.53 564.189L3194.52 616.459L3193.83 617.21L3178.17 602.963L3190.79 555.191ZM3185.17 528.635L3200.19 542.304C3205.12 546.79 3210.1 549.062 3215.11 549.119C3220.17 549.139 3224.66 546.991 3228.58 542.676C3232.68 538.168 3234.56 533.508 3234.22 528.694C3233.93 523.915 3231.27 519.174 3226.25 514.47L3210.82 500.433L3185.17 528.635Z" fill="#FCE3CF"/>
<path d="M3296.4 677.421C3300.34 673.939 3304.9 671.822 3310.08 671.072C3315.29 670.288 3322.95 671.057 3333.07 673.38C3334.31 666.373 3335.81 660.912 3337.57 656.999C3339.36 653.124 3341.62 649.98 3344.35 647.566C3351.03 641.669 3358.09 639.044 3365.54 639.689C3373.03 640.3 3379.81 644.04 3385.88 650.91C3391.36 657.116 3394.01 663.811 3393.82 670.995C3393.71 678.183 3390.96 684.157 3385.57 688.915C3382.02 692.054 3377.95 694.053 3373.36 694.912C3368.81 695.738 3363.24 695.412 3356.65 693.934L3347.31 691.862L3342.41 725.487C3349.2 723.73 3355.46 720.317 3361.2 715.248L3372.11 727.601C3361.61 736.878 3350.83 742.022 3339.77 743.036L3336.03 768.652L3321.44 752.141L3322.88 742.323C3312.94 740.268 3304.24 735.026 3296.79 726.595C3289.34 718.164 3285.6 709.446 3285.57 700.44C3285.61 691.44 3289.22 683.767 3296.4 677.421ZM3308.51 716.97C3312.75 721.771 3318.32 724.846 3325.21 726.194L3330.71 688.179L3327.82 687.502C3320.13 685.956 3314 687.2 3309.44 691.235C3305.5 694.718 3303.42 698.814 3303.2 703.524C3302.98 708.233 3304.75 712.715 3308.51 716.97ZM3356.5 660.605C3353.22 663.502 3350.88 669.15 3349.47 677.55L3359.66 680.117L3362.73 680.639C3367.01 681.162 3370.84 679.941 3374.19 676.976C3376.42 675.01 3377.57 672.498 3377.65 669.441C3377.76 666.348 3376.69 663.514 3374.41 660.938C3371.96 658.167 3369.08 656.789 3365.75 656.805C3362.43 656.821 3359.35 658.088 3356.5 660.605Z" fill="#FCE3CF"/>
<path d="M3476.51 874.381L3449.85 837.163L3410.66 865.233L3399.15 849.164L3491.63 782.925L3533.71 841.673L3520.75 850.954L3490.18 808.274L3462.68 827.973L3489.34 865.191L3476.51 874.381Z" fill="#FCE3CF"/>
<path d="M3518.85 979.91L3495.61 942.477L3468.25 948.615L3457.41 931.159L3576.71 907.662L3586.07 922.728L3512.14 1019.3L3501.26 1001.78L3518.85 979.91ZM3512.08 938.782L3529.47 966.791L3560.86 927.896L3512.08 938.782Z" fill="#FCE3CF"/>
<path d="M3584.94 1092.33C3589.36 1089.99 3591.94 1086.63 3592.68 1082.23C3593.45 1077.88 3592.91 1071.01 3591.08 1061.61C3589.24 1052.22 3588.55 1044.34 3589.02 1037.97C3589.94 1025.76 3595.03 1017.21 3604.29 1012.33C3612.39 1008.05 3620.81 1007.82 3629.54 1011.63C3638.29 1015.5 3645.45 1022.7 3651.02 1033.25C3654.71 1040.25 3656.72 1047.17 3657.03 1054.01C3657.34 1060.86 3655.93 1067.11 3652.79 1072.77C3649.7 1078.41 3645.25 1082.76 3639.45 1085.82L3630.26 1068.41C3635.51 1065.64 3638.74 1061.81 3639.93 1056.94C3641.2 1052.09 3640.22 1046.6 3636.99 1040.48C3633.97 1034.76 3630.41 1030.96 3626.29 1029.07C3622.19 1027.23 3617.96 1027.46 3613.58 1029.77C3609.9 1031.72 3607.71 1035.05 3607.02 1039.77C3606.38 1044.47 3606.95 1051.35 3608.73 1060.42C3610.56 1069.47 3611.23 1077.15 3610.74 1083.48C3610.3 1089.78 3608.73 1095.06 3606.02 1099.31C3603.37 1103.54 3599.46 1107.01 3594.3 1109.74C3585.92 1114.16 3577.54 1114.46 3569.16 1110.64C3560.85 1106.84 3553.79 1099.43 3547.98 1088.42C3544.14 1081.14 3541.94 1073.74 3541.38 1066.2C3540.89 1058.69 3542.11 1051.97 3545.06 1046.06C3548.03 1040.19 3552.67 1035.6 3558.98 1032.27L3568.2 1049.75C3562.49 1052.76 3559.07 1056.98 3557.93 1062.41C3556.79 1067.84 3558.08 1074.08 3561.8 1081.13C3565.01 1087.21 3568.64 1091.13 3572.68 1092.88C3576.8 1094.65 3580.88 1094.47 3584.94 1092.33Z" fill="#FCE3CF"/>
<path d="M3709.26 1196.4L3694.83 1164L3605.47 1203.77L3597.5 1185.86L3686.86 1146.08L3672.56 1113.97L3687.12 1107.48L3723.82 1189.92L3709.26 1196.4Z" fill="#FCE3CF"/>
<path d="M3707.2 1323.26L3691.11 1279.39L3658.25 1291.44L3677.05 1342.71L3662.23 1348.15L3636.63 1278.32L3743.43 1239.16L3768.84 1308.47L3753.88 1313.96L3735.27 1263.2L3705.78 1274.01L3721.86 1317.88L3707.2 1323.26Z" fill="#FCE3CF"/>
<path d="M3726.89 1408.41L3720.64 1387.28L3678.61 1399.7L3673.01 1380.75L3782.1 1348.51L3793.43 1386.87C3797.15 1399.45 3797.2 1410 3793.58 1418.51C3789.96 1427.03 3782.8 1432.86 3772.12 1436.02C3764.82 1438.17 3758.18 1438.21 3752.19 1436.13C3746.26 1434.08 3741.04 1430.3 3736.53 1424.78L3698.3 1462.72L3697.32 1463.01L3691.32 1442.71L3726.89 1408.41ZM3735.85 1382.79L3741.61 1402.27C3743.5 1408.66 3746.57 1413.18 3750.83 1415.83C3755.14 1418.47 3760.1 1418.96 3765.69 1417.31C3771.53 1415.58 3775.56 1412.57 3777.77 1408.28C3779.99 1404.04 3780.18 1398.61 3778.33 1391.98L3772.41 1371.98L3735.85 1382.79Z" fill="#FCE3CF"/>
<path d="M3730.2 1514.01C3731.01 1517.46 3730.64 1520.35 3729.1 1522.69C3727.62 1525.02 3725.4 1526.53 3722.46 1527.22C3719.57 1527.9 3716.94 1527.52 3714.58 1526.1C3712.26 1524.66 3710.7 1522.22 3709.89 1518.77C3709.12 1515.48 3709.44 1512.65 3710.87 1510.28C3712.29 1507.91 3714.47 1506.38 3717.41 1505.69C3720.35 1505 3723.01 1505.37 3725.38 1506.79C3727.79 1508.21 3729.4 1510.61 3730.2 1514.01Z" fill="#FCE3CF"/>
</svg>
