<?xml version="1.0" encoding="utf-8"?>
<svg width="993px" height="996px" viewBox="0 0 993 996" version="1.1" xmlns:xlink="http://www.w3.org/1999/xlink" xmlns="http://www.w3.org/2000/svg">
  <g id="Group" opacity="0.2">
    <path d="M169.73 106.332C157.873 120.866 144.964 134.54 131.098 147.067C94.379 180.343 50.011 206.353 2.67804 222.226L0 214.194C46.186 198.703 89.503 173.267 125.361 140.756C143.434 124.404 159.881 106.045 174.415 86.155C188.854 66.362 201.285 45.133 211.326 23.045C214.768 15.586 217.924 7.745 220.792 0L228.729 2.96399C225.765 10.996 222.513 18.933 218.975 26.583C208.648 49.245 195.93 70.952 181.205 91.223C177.667 96.387 173.746 101.359 169.73 106.332L169.73 106.332L169.73 106.332Z" transform="translate(625.7192 635.51355)" id="Shape#1" fill="#FFFFFF" fill-opacity="0.5019608" fill-rule="evenodd" stroke="none" />
    <path d="M472.374 242.307C444.74 276.253 412.61 306.566 377.421 331.619C323.968 369.772 261.623 397.12 197.078 410.89C132.724 424.659 64.641 425.042 0 411.941L1.72101 403.622C65.214 416.531 132.15 416.149 195.356 402.57C258.85 389.088 320.144 362.122 372.64 324.734C425.041 287.441 470.462 238.291 504.217 182.639C537.876 126.987 560.158 63.876 568.478 0L576.888 1.05194C568.378 66.075 545.808 130.333 511.484 186.942C499.627 206.258 486.622 224.808 472.374 242.307L472.374 242.307L472.374 242.307Z" transform="translate(414.8722 573.9326)" id="Shape#2" fill="#FFFFFF" fill-opacity="0.5019608" fill-rule="evenodd" stroke="none" />
    <path d="M695.174 107.529L676.528 130.479C628.908 91.6562 572.682 62.4913 513.875 46.1397C455.067 29.6927 391.765 25.3897 330.949 33.6137C269.846 41.8367 210.082 62.9694 158.159 94.6204C106.141 126.176 59.764 169.397 24.097 219.694L0 202.578C37.962 149.03 87.399 102.94 142.86 69.3761C198.225 35.6217 261.909 13.1497 327.028 4.35268C391.86 -4.44432 459.179 0.145695 521.907 17.6447C584.444 35.0477 644.495 66.2206 695.174 107.529L695.174 107.529L695.174 107.529Z" transform="translate(119.11221 30.173828)" id="Shape#3" fill="#FFFFFF" fill-rule="evenodd" stroke="none" />
    <path d="M470.847 468.263C408.884 470.463 345.964 459.848 288.686 437.377C231.6 415.097 178.051 380.099 133.874 336.304C90.0788 292.987 54.8898 239.726 32.1318 182.065C9.37377 124.788 -1.62323 61.772 0.193565 0L29.7408 0.860992C28.0198 58.617 38.3468 117.52 59.6708 171.164C80.9948 225 113.793 274.915 154.72 315.267C196.028 356.289 246.135 388.992 299.492 409.838C353.04 430.875 411.944 440.82 469.795 438.716L470.847 468.263L470.847 468.263L470.847 468.263Z" transform="translate(56.38144 496.66956)" id="Shape#4" fill="#FFFFFF" fill-rule="evenodd" stroke="none" />
    <path d="M270.899 217.445C221.558 208.456 173.173 188.758 131.099 160.741C89.025 132.723 52.497 95.622 25.436 53.548C15.874 38.727 7.26799 23.045 0 6.97998L15.396 0C22.376 15.395 30.6 30.312 39.684 44.464C65.597 84.625 100.404 120.006 140.565 146.78C180.727 173.65 226.912 192.392 274.054 200.998L270.899 217.445L270.899 217.445L270.899 217.445Z" transform="translate(173.90321 658.08057)" id="Shape#6" fill="#FFFFFF" fill-rule="evenodd" stroke="none" />
    <path d="M175.912 700.912L170.461 707.319C120.451 664.958 78.6642 611.218 49.5946 551.646C20.5254 492.168 3.60021 426.189 0.54031 360.783C-2.61519 295.186 8.09451 227.964 31.522 166.192C54.7582 104.611 91.2862 47.1419 137.28 0L143.304 5.92857C98.1712 52.3055 62.2172 108.818 39.363 169.252C16.318 229.876 5.79961 296.047 8.85951 360.401C11.8238 424.659 28.5577 489.491 57.0532 547.916C85.7402 606.437 126.762 659.316 175.912 700.912L175.912 700.912L175.912 700.912Z" transform="translate(0 172.41455)" id="Shape#7" fill="#FFFFFF" fill-opacity="0.5019608" fill-rule="evenodd" stroke="none" />
    <path d="M682.358 341.666L674.428 344.439C651.958 279.894 615.521 219.365 569.24 169.546C522.576 119.153 465.107 78.2266 403.049 51.0696C340.416 23.5306 271.377 8.70858 203.389 8.42158C135.593 7.94358 66.458 21.9046 3.34702 48.8706L0 41.1246C64.163 13.7766 134.541 -0.375419 203.389 0.00757599C272.524 0.38958 342.711 15.4026 406.395 43.4196C469.506 71.0546 527.931 112.65 575.36 163.904C622.502 214.488 659.508 276.069 682.358 341.666L682.358 341.666L682.358 341.666Z" transform="translate(310.4522 0)" id="Shape#8" fill="#FFFFFF" fill-opacity="0.5019608" fill-rule="evenodd" stroke="none" />
    <path d="M389.661 413.952L372.831 412.9C376.082 362.794 368.624 310.967 351.412 263.06C334.295 215.344 306.947 170.784 272.428 134.065C238.099 97.4418 195.165 67.4163 148.31 47.3356C101.646 27.2549 50.488 16.7365 0.0949707 16.9277L0 0.00244904C52.592 -0.188744 106.236 10.8078 154.908 31.8448C203.866 52.8817 248.713 84.2458 284.667 122.59C320.813 160.935 349.308 207.599 367.189 257.418C385.262 307.333 393.008 361.455 389.661 413.952L389.661 413.952L389.661 413.952Z" transform="translate(509.9212 121.253914)" id="Shape#9" fill="#FFFFFF" fill-rule="evenodd" stroke="none" />
    <path d="M628.813 85.4178C579.95 51.8544 523.532 28.14 465.49 16.6654C407.256 5.09494 346.057 5.76435 288.493 18.5778C230.259 31.3912 174.319 56.4443 126.7 90.8683C78.888 125.388 37.579 170.617 7.267 221.584L0 217.281C30.886 165.263 72.96 119.173 121.727 83.9835C170.208 48.8901 227.199 23.3589 286.58 10.3543C345.292 -2.74605 407.638 -3.41534 467.02 8.34615C526.114 20.0121 583.679 44.2046 633.498 78.4374L628.813 85.4178L628.813 85.4178L628.813 85.4178Z" transform="translate(129.24821 95.60268)" id="Shape#10" fill="#FFFFFF" fill-opacity="0.5019608" fill-rule="evenodd" stroke="none" />
    <path d="M275.489 0C281.513 0 287.538 0.191299 293.466 0.573807L292.414 16.8296C257.13 14.5346 221.08 19.507 188.186 31.2685C155.196 42.9345 124.119 61.9631 98.3969 86.1561C72.6739 110.253 51.7329 139.991 37.6759 172.12C23.6199 204.249 16.2569 239.916 16.2569 275.201L0.000854492 275.201C-0.0941467 237.717 7.84186 199.851 22.7589 165.618C37.5809 131.481 59.8609 99.8301 87.2089 74.2991C114.652 48.5762 147.642 28.3999 182.64 15.969C212.092 5.4505 243.838 0 275.489 0L275.489 0L275.489 0Z" transform="translate(222.86134 224.81543)" id="Shape#11" fill="#FFFFFF" fill-rule="evenodd" stroke="none" />
    <path d="M56.513 0C65.597 0 74.586 0.668976 83.479 2.008C107.098 5.64099 130.238 14.247 150.606 27.156L148.406 30.599C128.613 18.072 105.95 9.56201 82.905 6.02399C71.335 4.30298 59.382 3.633 47.62 4.30298C35.859 4.87598 24.097 6.69299 12.814 9.65799C8.98898 10.709 5.069 11.857 1.33899 13.1L0 9.27499C3.92099 7.936 7.84198 6.789 11.762 5.737C23.332 2.677 35.381 0.860016 47.429 0.190979C50.394 0 53.453 0 56.513 0L56.513 0L56.513 0Z" transform="translate(441.55023 317.2826)" id="Shape#12" fill="#FFFFFF" fill-opacity="0.5019608" fill-rule="evenodd" stroke="none" />
    <path d="M121.823 0C142.955 0 163.992 2.7731 184.073 8.31921C214.576 16.7342 243.741 31.6512 268.507 51.6362C293.178 71.4302 314.024 96.8652 328.75 124.978L325.116 126.891C310.677 99.2562 290.214 74.3942 265.926 54.8872C241.638 35.2842 212.951 20.5592 182.925 12.3353C153.091 4.11179 120.866 2.00809 89.885 6.3111C58.808 10.6141 28.495 21.5152 2.103 37.7712L0 34.3282C26.87 17.7862 57.756 6.6936 89.311 2.29501C100.116 0.764984 111.017 0 121.823 0L121.823 0L121.823 0Z" transform="translate(376.1452 266.50635)" id="Shape#13" fill="#FFFFFF" fill-opacity="0.5019608" fill-rule="evenodd" stroke="none" />
    <path d="M239.821 0C242.689 33.468 238.673 67.796 228.155 99.256C217.636 130.811 200.233 160.741 177.953 185.699C155.864 210.465 128.038 231.024 97.534 244.984C67.222 258.945 33.563 266.691 0.0950317 267.36L0 263.248C32.894 262.579 66.075 255.025 95.813 241.255C125.839 227.39 153.187 207.309 174.893 182.926C196.886 158.351 214.002 128.995 224.33 97.917C234.657 66.936 238.673 33.181 235.804 0.286987L239.821 0L239.821 0L239.821 0Z" transform="translate(503.32318 478.5016)" id="Shape#14" fill="#FFFFFF" fill-opacity="0.5019608" fill-rule="evenodd" stroke="none" />
    <path d="M216.584 0L219.931 2.39001C216.106 7.745 211.995 12.909 207.692 17.881C190.958 36.91 170.112 52.592 147.449 63.206C124.787 73.916 99.447 79.94 74.203 80.609C48.863 81.374 23.236 76.88 0 67.605L1.53 63.78C24.288 72.864 49.341 77.263 74.107 76.498C98.778 75.828 123.544 69.9 145.728 59.477C167.913 49.15 188.28 33.754 204.727 15.108C208.839 10.327 212.855 5.25897 216.584 0L216.584 0L216.584 0Z" transform="translate(429.5982 604.7236)" id="Shape#15" fill="#FFFFFF" fill-opacity="0.5019608" fill-rule="evenodd" stroke="none" />
    <path d="M48.959 167.722L63.111 169.252C63.302 168.2 64.832 151.37 64.832 144.103C64.832 121.345 61.294 98.682 54.505 77.454C45.516 49.246 30.312 22.471 10.71 0L0 9.371C18.36 30.408 32.512 55.365 40.926 81.757C47.238 101.455 50.489 122.492 50.584 143.529C50.584 150.605 49.15 166.67 48.959 167.722L48.959 167.722L48.959 167.722Z" transform="translate(652.3022 355.91357)" id="Shape#16" fill="#FFFFFF" fill-rule="evenodd" stroke="none" />
    <path d="M8.79803 0C40.353 20.2722 67.988 47.3332 88.642 78.4102C109.297 109.392 123.831 145.25 130.525 182.065C137.314 218.975 136.358 257.702 127.847 293.943C119.433 330.088 103.177 365.182 80.801 395.398L67.701 385.741C88.738 357.341 104.037 324.351 111.974 290.309C120.006 256.268 120.867 219.836 114.46 185.125C108.149 150.414 94.475 116.755 75.064 87.5902C55.653 58.3292 29.643 32.8942 0 13.8652L8.79803 0L8.79803 0L8.79803 0Z" transform="translate(638.3412 268.61035)" id="Shape#17" fill="#FFFFFF" fill-rule="evenodd" stroke="none" />
    <path d="M250.148 0L254.26 0.0950012C253.686 31.651 246.228 63.589 232.84 92.562C219.453 121.536 199.946 147.927 176.423 168.869C152.9 190.001 124.5 206.448 94.284 216.393C64.258 226.433 31.651 230.258 0 227.39L0.382019 223.374C31.46 226.147 63.493 222.417 93.04 212.568C122.683 202.719 150.605 186.559 173.746 165.904C196.791 145.25 216.011 119.336 229.207 90.937C242.211 62.441 249.574 30.981 250.148 0L250.148 0L250.148 0Z" transform="translate(477.40918 505.18054)" id="Shape#18" fill="#FFFFFF" fill-opacity="0.5019608" fill-rule="evenodd" stroke="none" />
    <path d="M36.4137 0L39.8557 2.104C22.5487 30.121 11.0737 62.059 6.4837 94.571C1.7977 127.273 3.99771 161.219 12.6987 192.679C21.4007 224.426 36.8917 254.738 57.4507 280.269C77.9137 305.705 104.114 327.315 133.375 342.711L131.462 346.344C101.724 330.662 75.0447 308.669 54.2947 282.851C33.4487 256.937 17.6717 226.147 8.77872 193.827C-0.114288 161.889 -2.31329 127.369 2.46771 94.092C7.15271 61.007 18.9147 28.496 36.4137 0L36.4137 0L36.4137 0Z" transform="translate(252.1415 371.3086)" id="Shape#19" fill="#FFFFFF" fill-opacity="0.5019608" fill-rule="evenodd" stroke="none" />
    <path d="M78.7379 0L83.424 6.59802C63.7249 20.655 46.6089 39.11 33.987 60.147C21.365 81.088 13.045 104.802 9.79395 128.899C6.54297 152.9 8.35995 178.049 15.0529 201.668C21.7469 225.191 33.413 247.566 48.713 266.308L42.4019 271.472C26.337 251.869 14.193 228.538 7.21198 203.963C0.135956 179.292 -1.77603 152.996 1.66595 127.943C5.01297 102.794 13.715 77.932 26.911 56.13C40.298 34.042 58.084 14.726 78.7379 0L78.7379 0L78.7379 0Z" transform="translate(310.50726 347.30762)" id="Shape#20" fill="#FFFFFF" fill-rule="evenodd" stroke="none" />
    <path d="M198.513 0C210.752 0 222.896 0.956207 234.753 2.96429C259.328 6.9805 283.043 15.0123 305.131 26.8703L303.219 30.4083C281.513 18.7423 258.181 10.8053 234.084 6.8848C204.345 2.00809 173.173 3.3468 143.816 10.7093C114.365 18.0723 86.252 31.6513 62.442 50.0103C38.632 68.2743 18.264 91.9883 3.53799 118.571L0 116.563C15.013 89.5023 35.763 65.4053 59.956 46.7593C84.148 28.1133 112.739 14.2473 142.765 6.6936C160.933 2.29489 179.771 0 198.513 0L198.513 0L198.513 0Z" transform="translate(300.02924 273.67822)" id="Shape#21" fill="#FFFFFF" fill-opacity="0.5019608" fill-rule="evenodd" stroke="none" />
    <path d="M4.112 0C6.40698 28.4 14.726 56.8 28.018 81.948C41.405 107.193 60.243 129.855 82.523 147.45C104.994 165.331 131.386 178.623 158.734 185.89C186.177 193.253 215.629 194.974 243.838 190.767L244.411 194.783C215.533 199.086 185.603 197.365 157.586 189.81C129.76 182.352 102.89 168.773 79.941 150.605C57.278 132.628 38.058 109.583 24.384 83.765C10.806 58.138 2.29498 29.26 0 0.286987L4.112 0L4.112 0L4.112 0Z" transform="translate(284.8252 516.7506)" id="Shape#22" fill="#FFFFFF" fill-opacity="0.5019608" fill-rule="evenodd" stroke="none" />
    <path d="M13.292 0C35.189 30.025 63.78 55.939 96.101 74.872C128.421 93.901 165.044 106.332 201.955 110.731C238.961 115.225 277.401 111.974 313.259 101.36C349.213 90.746 383.255 72.482 411.846 48.576L422.269 61.007C392.052 86.347 355.907 105.663 317.849 116.85C279.887 128.038 239.152 131.481 199.947 126.795C160.837 122.11 122.014 108.914 87.782 88.737C53.549 68.657 23.236 41.213 0 9.37097L13.292 0L13.292 0L13.292 0Z" transform="translate(262.8322 662.19257)" id="Shape#23" fill="#FFFFFF" fill-rule="evenodd" stroke="none" />
    <path d="M198.512 214.386C184.838 212.282 171.26 209.222 158.446 204.632C130.811 194.879 104.802 178.91 83.096 158.638C61.485 138.462 43.891 113.504 32.129 86.443C20.368 59.477 14.152 29.643 14.248 0L0 0C0 31.556 6.59799 63.398 19.124 92.18C31.651 120.963 50.393 147.546 73.342 169.061C96.387 190.671 124.213 207.692 153.665 218.115C167.53 223.087 182.065 226.338 196.791 228.538L198.512 214.386L198.512 214.386L198.512 214.386Z" transform="translate(262.64124 501.73755)" id="Shape#24" fill="#FFFFFF" fill-rule="evenodd" stroke="none" />
  </g>
</svg>